<?xml version="1.0" encoding="UTF-8" standalone="no"?>
<!-- Created with Inkscape (http://www.inkscape.org/) -->

<svg
   xmlns:dc="http://purl.org/dc/elements/1.1/"
   xmlns:cc="http://creativecommons.org/ns#"
   xmlns:rdf="http://www.w3.org/1999/02/22-rdf-syntax-ns#"
   xmlns:svg="http://www.w3.org/2000/svg"
   xmlns="http://www.w3.org/2000/svg"
   xmlns:sodipodi="http://sodipodi.sourceforge.net/DTD/sodipodi-0.dtd"
   xmlns:inkscape="http://www.inkscape.org/namespaces/inkscape"
   id="svg2"
   version="1.1"
   inkscape:version="0.47 r22583"
   width="560"
   height="420.10376"
   xml:space="preserve"
   sodipodi:docname="k0_W1_dofs.eps"><metadata
     id="metadata8"><rdf:RDF><cc:Work
         rdf:about=""><dc:format>image/svg+xml</dc:format><dc:type
           rdf:resource="http://purl.org/dc/dcmitype/StillImage" /><dc:title></dc:title></cc:Work></rdf:RDF></metadata><defs
     id="defs6"><inkscape:perspective
       sodipodi:type="inkscape:persp3d"
       inkscape:vp_x="0 : 0.5 : 1"
       inkscape:vp_y="0 : 1000 : 0"
       inkscape:vp_z="1 : 0.5 : 1"
       inkscape:persp3d-origin="0.5 : 0.33333333 : 1"
       id="perspective10" /><clipPath
       clipPathUnits="userSpaceOnUse"
       id="clipPath20"><path
         d="m 810,5640 4480,0 0,-3360.83 -4480,0 0,3360.83 z"
         id="path22" /></clipPath><clipPath
       clipPathUnits="userSpaceOnUse"
       id="clipPath38"><path
         d="m 1391.67,5389.17 3472.5,0 0,-2740 -3472.5,0 0,2740 z"
         id="path40" /></clipPath><clipPath
       clipPathUnits="userSpaceOnUse"
       id="clipPath48"><path
         d="m 810,5640 4480,0 0,-3360.83 -4480,0 0,3360.83 z"
         id="path50" /></clipPath><clipPath
       clipPathUnits="userSpaceOnUse"
       id="clipPath60"><path
         d="m 1391.67,5389.17 3472.5,0 0,-2740 -3472.5,0 0,2740 z"
         id="path62" /></clipPath><clipPath
       clipPathUnits="userSpaceOnUse"
       id="clipPath72"><path
         d="m 810,5640 4480,0 0,-3360.83 -4480,0 0,3360.83 z"
         id="path74" /></clipPath><clipPath
       clipPathUnits="userSpaceOnUse"
       id="clipPath96"><path
         d="m 1391.67,5389.17 3472.5,0 0,-2740 -3472.5,0 0,2740 z"
         id="path98" /></clipPath><clipPath
       clipPathUnits="userSpaceOnUse"
       id="clipPath110"><path
         d="m 810,5640 4480,0 0,-3360.83 -4480,0 0,3360.83 z"
         id="path112" /></clipPath><clipPath
       clipPathUnits="userSpaceOnUse"
       id="clipPath122"><path
         d="m 1391.67,5389.17 3472.5,0 0,-2740 -3472.5,0 0,2740 z"
         id="path124" /></clipPath><clipPath
       clipPathUnits="userSpaceOnUse"
       id="clipPath136"><path
         d="m 810,5640 4480,0 0,-3360.83 -4480,0 0,3360.83 z"
         id="path138" /></clipPath><clipPath
       clipPathUnits="userSpaceOnUse"
       id="clipPath160"><path
         d="m 1391.67,5389.17 3472.5,0 0,-2740 -3472.5,0 0,2740 z"
         id="path162" /></clipPath></defs><sodipodi:namedview
     pagecolor="#ffffff"
     bordercolor="#666666"
     borderopacity="1"
     objecttolerance="10"
     gridtolerance="10"
     guidetolerance="10"
     inkscape:pageopacity="0"
     inkscape:pageshadow="2"
     inkscape:window-width="640"
     inkscape:window-height="498"
     id="namedview4"
     showgrid="false"
     inkscape:zoom="0.23838384"
     inkscape:cx="281.25"
     inkscape:cy="201.71392"
     inkscape:window-x="0"
     inkscape:window-y="25"
     inkscape:window-maximized="0"
     inkscape:current-layer="g12" /><g
     id="g12"
     inkscape:groupmode="layer"
     inkscape:label="ink_ext_XXXXXX"
     transform="matrix(1.25,0,0,-1.25,-101.25,705)"><g
       id="g14"
       transform="scale(0.1,0.1)"><g
         id="g16"><g
           id="g18"
           clip-path="url(#clipPath20)"><path
             d="m 810,2279.17 4480,0 0,3360.83 -4480,0 0,-3360.83 z"
             style="fill:#ffffff;fill-opacity:1;fill-rule:nonzero;stroke:none"
             id="path24" /><path
             d="m 4574.17,4078.33 61.66,-150 -61.66,0 0,-102.5 0,102.5 -60.84,0 60.84,150"
             style="fill:#ff0000;fill-opacity:1;fill-rule:evenodd;stroke:none"
             id="path26" /><path
             d="m 4574.17,4078.33 61.66,-150 -61.66,0 0,-102.5 0,102.5 -60.84,0 60.84,150 0,0"
             style="fill:none;stroke:#ff0000;stroke-width:5;stroke-linecap:butt;stroke-linejoin:round;stroke-miterlimit:10;stroke-opacity:1;stroke-dasharray:none"
             id="path28" /><path
             d="m 3820.83,3667.5 210.84,-48.33 -16.67,-40.84 56.67,-25.83 0,0 -56.67,25.83 -17.5,-40 -176.67,129.17"
             style="fill:#00ff00;fill-opacity:1;fill-rule:evenodd;stroke:none"
             id="path30" /><path
             d="m 3820.83,3667.5 210.84,-48.33 -16.67,-40.84 56.67,-25.83 0,0 -56.67,25.83 -17.5,-40 -176.67,129.17 0,0"
             style="fill:none;stroke:#00ff00;stroke-width:5;stroke-linecap:butt;stroke-linejoin:round;stroke-miterlimit:10;stroke-opacity:1;stroke-dasharray:none"
             id="path32" /></g></g><g
         id="g34"><g
           id="g36"
           clip-path="url(#clipPath38)"><path
             d="M 4574.17,3320.83 3318.33,3899.17"
             style="fill:none;stroke:#000000;stroke-width:5;stroke-linecap:butt;stroke-linejoin:round;stroke-miterlimit:10;stroke-opacity:1;stroke-dasharray:none"
             id="path42" /></g></g><g
         id="g44"><g
           id="g46"
           clip-path="url(#clipPath48)"><path
             d="m 3820.83,4929.17 219.17,-45.84 -25,-43.33 56.67,-25.83 0,0 -56.67,25.83 -25.83,-42.5 -168.34,131.67"
             style="fill:#00ff00;fill-opacity:1;fill-rule:evenodd;stroke:none"
             id="path52" /><path
             d="m 3820.83,4929.17 219.17,-45.84 -25,-43.33 56.67,-25.83 0,0 -56.67,25.83 -25.83,-42.5 -168.34,131.67 0,0"
             style="fill:none;stroke:#00ff00;stroke-width:5;stroke-linecap:butt;stroke-linejoin:round;stroke-miterlimit:10;stroke-opacity:1;stroke-dasharray:none"
             id="path54" /></g></g><g
         id="g56"><g
           id="g58"
           clip-path="url(#clipPath60)"><path
             d="M 4574.17,4582.5 3318.33,5160.84"
             style="fill:none;stroke:#000000;stroke-width:5;stroke-linecap:butt;stroke-linejoin:round;stroke-miterlimit:10;stroke-opacity:1;stroke-dasharray:none"
             id="path64" /><path
             d="m 4574.17,3320.83 0,1261.67"
             style="fill:none;stroke:#000000;stroke-width:5;stroke-linecap:butt;stroke-linejoin:round;stroke-miterlimit:10;stroke-opacity:1;stroke-dasharray:none"
             id="path66" /></g></g><g
         id="g68"><g
           id="g70"
           clip-path="url(#clipPath72)"><path
             d="m 3920,4405 -222.5,-10 16.67,-45.83 -121.67,-32.5 0,0 121.67,32.5 15.83,-45 190,100.83"
             style="fill:#0000ff;fill-opacity:1;fill-rule:evenodd;stroke:none"
             id="path76" /><path
             d="m 3920,4405 -222.5,-10 16.67,-45.83 -121.67,-32.5 0,0 121.67,32.5 15.83,-45 190,100.83 0,0"
             style="fill:none;stroke:#0000ff;stroke-width:5;stroke-linecap:butt;stroke-linejoin:round;stroke-miterlimit:10;stroke-opacity:1;stroke-dasharray:none"
             id="path78" /><path
             d="m 3920,3144.17 -111.67,1.66 8.34,-30 -224.17,-60.83 0,0 224.17,60.83 8.33,-29.16 95,57.5"
             style="fill:#0000ff;fill-opacity:1;fill-rule:evenodd;stroke:none"
             id="path80" /><path
             d="m 3920,3144.17 -111.67,1.66 8.34,-30 -224.17,-60.83 0,0 224.17,60.83 8.33,-29.16 95,57.5 0,0"
             style="fill:none;stroke:#0000ff;stroke-width:5;stroke-linecap:butt;stroke-linejoin:round;stroke-miterlimit:10;stroke-opacity:1;stroke-dasharray:none"
             id="path82" /><path
             d="m 3318.33,4655.84 60.84,-149.17 -60.84,0 0,-103.34 0,103.34 -60.83,0 60.83,149.17"
             style="fill:#ff0000;fill-opacity:1;fill-rule:evenodd;stroke:none"
             id="path84" /><path
             d="m 3318.33,4655.84 60.84,-149.17 -60.84,0 0,-103.34 0,103.34 -60.83,0 60.83,149.17 0,0"
             style="fill:none;stroke:#ff0000;stroke-width:5;stroke-linecap:butt;stroke-linejoin:round;stroke-miterlimit:10;stroke-opacity:1;stroke-dasharray:none"
             id="path86" /><path
             d="m 2335.83,3633.33 142.5,83.34 12.5,-41.67 172.5,46.67 0,0 -172.5,-46.67 11.67,-42.5 -166.67,0.83"
             style="fill:#0000ff;fill-opacity:1;fill-rule:evenodd;stroke:none"
             id="path88" /><path
             d="m 2335.83,3633.33 142.5,83.34 12.5,-41.67 172.5,46.67 0,0 -172.5,-46.67 11.67,-42.5 -166.67,0.83 0,0"
             style="fill:none;stroke:#0000ff;stroke-width:5;stroke-linecap:butt;stroke-linejoin:round;stroke-miterlimit:10;stroke-opacity:1;stroke-dasharray:none"
             id="path90" /></g></g><g
         id="g92"><g
           id="g94"
           clip-path="url(#clipPath96)"><path
             d="M 3318.33,3899.17 1681.67,3455.83"
             style="fill:none;stroke:#000000;stroke-width:5;stroke-linecap:butt;stroke-linejoin:round;stroke-miterlimit:10;stroke-opacity:1;stroke-dasharray:none"
             id="path100" /><path
             d="M 3318.33,5160.84 1681.67,4717.5"
             style="fill:none;stroke:#000000;stroke-width:5;stroke-linecap:butt;stroke-linejoin:round;stroke-miterlimit:10;stroke-opacity:1;stroke-dasharray:none"
             id="path102" /><path
             d="m 3318.33,3899.17 0,1261.67"
             style="fill:none;stroke:#000000;stroke-width:5;stroke-linecap:butt;stroke-linejoin:round;stroke-miterlimit:10;stroke-opacity:1;stroke-dasharray:none"
             id="path104" /></g></g><g
         id="g106"><g
           id="g108"
           clip-path="url(#clipPath110)"><path
             d="m 2937.5,3635 45.83,-150 -45.83,0 0,-102.5 0,102.5 -45.83,0 45.83,150"
             style="fill:#ff0000;fill-opacity:1;fill-rule:evenodd;stroke:none"
             id="path114" /><path
             d="m 2937.5,3635 45.83,-150 -45.83,0 0,-102.5 0,102.5 -45.83,0 45.83,150 0,0"
             style="fill:none;stroke:#ff0000;stroke-width:5;stroke-linecap:butt;stroke-linejoin:round;stroke-miterlimit:10;stroke-opacity:1;stroke-dasharray:none"
             id="path116" /></g></g><g
         id="g118"><g
           id="g120"
           clip-path="url(#clipPath122)"><path
             d="m 2937.5,2877.5 1636.67,443.33"
             style="fill:none;stroke:#000000;stroke-width:5;stroke-linecap:butt;stroke-linejoin:round;stroke-miterlimit:10;stroke-opacity:1;stroke-dasharray:none"
             id="path126" /><path
             d="M 2937.5,4139.17 4574.17,4582.5"
             style="fill:none;stroke:#000000;stroke-width:5;stroke-linecap:butt;stroke-linejoin:round;stroke-miterlimit:10;stroke-opacity:1;stroke-dasharray:none"
             id="path128" /><path
             d="m 2937.5,2877.5 0,1261.67"
             style="fill:none;stroke:#000000;stroke-width:5;stroke-linecap:butt;stroke-linejoin:round;stroke-miterlimit:10;stroke-opacity:1;stroke-dasharray:none"
             id="path130" /></g></g><g
         id="g132"><g
           id="g134"
           clip-path="url(#clipPath136)"><path
             d="m 2335.83,4894.17 190,101.66 15.84,-45.83 121.66,33.33 0,0 -121.66,-33.33 16.66,-45.83 -222.5,-10"
             style="fill:#0000ff;fill-opacity:1;fill-rule:evenodd;stroke:none"
             id="path140" /><path
             d="m 2335.83,4894.17 190,101.66 15.84,-45.83 121.66,33.33 0,0 -121.66,-33.33 16.66,-45.83 -222.5,-10 0,0"
             style="fill:none;stroke:#0000ff;stroke-width:5;stroke-linecap:butt;stroke-linejoin:round;stroke-miterlimit:10;stroke-opacity:1;stroke-dasharray:none"
             id="path142" /><path
             d="m 2435,3109.17 -135,104.16 -10,-37.5 -105.83,48.34 0,0 105.83,-48.34 -10.83,-37.5 155.83,-29.16"
             style="fill:#00ff00;fill-opacity:1;fill-rule:evenodd;stroke:none"
             id="path144" /><path
             d="m 2435,3109.17 -135,104.16 -10,-37.5 -105.83,48.34 0,0 105.83,-48.34 -10.83,-37.5 155.83,-29.16 0,0"
             style="fill:none;stroke:#00ff00;stroke-width:5;stroke-linecap:butt;stroke-linejoin:round;stroke-miterlimit:10;stroke-opacity:1;stroke-dasharray:none"
             id="path146" /><path
             d="m 2435,4370.84 -168.33,131.66 -25.84,-42.5 -56.66,25.84 0,0 56.66,-25.84 -25,-43.33 219.17,-45.83"
             style="fill:#00ff00;fill-opacity:1;fill-rule:evenodd;stroke:none"
             id="path148" /><path
             d="m 2435,4370.84 -168.33,131.66 -25.84,-42.5 -56.66,25.84 0,0 56.66,-25.84 -25,-43.33 219.17,-45.83 0,0"
             style="fill:none;stroke:#00ff00;stroke-width:5;stroke-linecap:butt;stroke-linejoin:round;stroke-miterlimit:10;stroke-opacity:1;stroke-dasharray:none"
             id="path150" /><path
             d="m 1681.67,4212.5 60.83,-149.17 -60.83,0 0,-103.33 0,103.33 -61.67,0 61.67,149.17"
             style="fill:#ff0000;fill-opacity:1;fill-rule:evenodd;stroke:none"
             id="path152" /><path
             d="m 1681.67,4212.5 60.83,-149.17 -60.83,0 0,-103.33 0,103.33 -61.67,0 61.67,149.17 0,0"
             style="fill:none;stroke:#ff0000;stroke-width:5;stroke-linecap:butt;stroke-linejoin:round;stroke-miterlimit:10;stroke-opacity:1;stroke-dasharray:none"
             id="path154" /></g></g><g
         id="g156"><g
           id="g158"
           clip-path="url(#clipPath160)"><path
             d="M 1681.67,3455.83 2937.5,2877.5"
             style="fill:none;stroke:#000000;stroke-width:5;stroke-linecap:butt;stroke-linejoin:round;stroke-miterlimit:10;stroke-opacity:1;stroke-dasharray:none"
             id="path164" /><path
             d="M 1681.67,4717.5 2937.5,4139.17"
             style="fill:none;stroke:#000000;stroke-width:5;stroke-linecap:butt;stroke-linejoin:round;stroke-miterlimit:10;stroke-opacity:1;stroke-dasharray:none"
             id="path166" /><path
             d="m 1681.67,3455.83 0,1261.67"
             style="fill:none;stroke:#000000;stroke-width:5;stroke-linecap:butt;stroke-linejoin:round;stroke-miterlimit:10;stroke-opacity:1;stroke-dasharray:none"
             id="path168" /></g></g></g></g></svg>