<?xml version="1.0" encoding="UTF-8" standalone="no"?>
<!-- Created with Inkscape (http://www.inkscape.org/) -->

<svg
   xmlns:dc="http://purl.org/dc/elements/1.1/"
   xmlns:cc="http://creativecommons.org/ns#"
   xmlns:rdf="http://www.w3.org/1999/02/22-rdf-syntax-ns#"
   xmlns:svg="http://www.w3.org/2000/svg"
   xmlns="http://www.w3.org/2000/svg"
   xmlns:sodipodi="http://sodipodi.sourceforge.net/DTD/sodipodi-0.dtd"
   xmlns:inkscape="http://www.inkscape.org/namespaces/inkscape"
   id="svg2"
   version="1.1"
   inkscape:version="0.47 r22583"
   width="560"
   height="420.10376"
   xml:space="preserve"
   sodipodi:docname="k0_W2_dofs.eps"><metadata
     id="metadata8"><rdf:RDF><cc:Work
         rdf:about=""><dc:format>image/svg+xml</dc:format><dc:type
           rdf:resource="http://purl.org/dc/dcmitype/StillImage" /><dc:title></dc:title></cc:Work></rdf:RDF></metadata><defs
     id="defs6"><inkscape:perspective
       sodipodi:type="inkscape:persp3d"
       inkscape:vp_x="0 : 0.5 : 1"
       inkscape:vp_y="0 : 1000 : 0"
       inkscape:vp_z="1 : 0.5 : 1"
       inkscape:persp3d-origin="0.5 : 0.33333333 : 1"
       id="perspective10" /><clipPath
       clipPathUnits="userSpaceOnUse"
       id="clipPath20"><path
         d="m 810,5640 4480,0 0,-3360.83 -4480,0 0,3360.83 z"
         id="path22" /></clipPath><clipPath
       clipPathUnits="userSpaceOnUse"
       id="clipPath30"><path
         d="m 1391.67,5389.17 3472.5,0 0,-2740 -3472.5,0 0,2740 z"
         id="path32" /></clipPath><clipPath
       clipPathUnits="userSpaceOnUse"
       id="clipPath44"><path
         d="m 810,5640 4480,0 0,-3360.83 -4480,0 0,3360.83 z"
         id="path46" /></clipPath><clipPath
       clipPathUnits="userSpaceOnUse"
       id="clipPath60"><path
         d="m 1391.67,5389.17 3472.5,0 0,-2740 -3472.5,0 0,2740 z"
         id="path62" /></clipPath><clipPath
       clipPathUnits="userSpaceOnUse"
       id="clipPath74"><path
         d="m 810,5640 4480,0 0,-3360.83 -4480,0 0,3360.83 z"
         id="path76" /></clipPath><clipPath
       clipPathUnits="userSpaceOnUse"
       id="clipPath90"><path
         d="m 1391.67,5389.17 3472.5,0 0,-2740 -3472.5,0 0,2740 z"
         id="path92" /></clipPath><clipPath
       clipPathUnits="userSpaceOnUse"
       id="clipPath104"><path
         d="m 810,5640 4480,0 0,-3360.83 -4480,0 0,3360.83 z"
         id="path106" /></clipPath><clipPath
       clipPathUnits="userSpaceOnUse"
       id="clipPath120"><path
         d="m 1391.67,5389.17 3472.5,0 0,-2740 -3472.5,0 0,2740 z"
         id="path122" /></clipPath></defs><sodipodi:namedview
     pagecolor="#ffffff"
     bordercolor="#666666"
     borderopacity="1"
     objecttolerance="10"
     gridtolerance="10"
     guidetolerance="10"
     inkscape:pageopacity="0"
     inkscape:pageshadow="2"
     inkscape:window-width="640"
     inkscape:window-height="498"
     id="namedview4"
     showgrid="false"
     inkscape:zoom="0.23838384"
     inkscape:cx="281.25"
     inkscape:cy="201.71392"
     inkscape:window-x="0"
     inkscape:window-y="25"
     inkscape:window-maximized="0"
     inkscape:current-layer="g12" /><g
     id="g12"
     inkscape:groupmode="layer"
     inkscape:label="ink_ext_XXXXXX"
     transform="matrix(1.25,0,0,-1.25,-101.25,705)"><g
       id="g14"
       transform="scale(0.1,0.1)"><g
         id="g16"><g
           id="g18"
           clip-path="url(#clipPath20)"><path
             d="m 810,2279.17 4480,0 0,3360.83 -4480,0 0,-3360.83 z"
             style="fill:#ffffff;fill-opacity:1;fill-rule:nonzero;stroke:none"
             id="path24" /></g></g><g
         id="g26"><g
           id="g28"
           clip-path="url(#clipPath30)"><path
             d="M 4574.17,3320.83 3318.33,3899.17"
             style="fill:none;stroke:#000000;stroke-width:5;stroke-linecap:butt;stroke-linejoin:round;stroke-miterlimit:10;stroke-opacity:1;stroke-dasharray:none"
             id="path34" /><path
             d="M 4574.17,4582.5 3318.33,5160.84"
             style="fill:none;stroke:#000000;stroke-width:5;stroke-linecap:butt;stroke-linejoin:round;stroke-miterlimit:10;stroke-opacity:1;stroke-dasharray:none"
             id="path36" /><path
             d="m 4574.17,3320.83 0,1261.67"
             style="fill:none;stroke:#000000;stroke-width:5;stroke-linecap:butt;stroke-linejoin:round;stroke-miterlimit:10;stroke-opacity:1;stroke-dasharray:none"
             id="path38" /></g></g><g
         id="g40"><g
           id="g42"
           clip-path="url(#clipPath44)"><path
             d="m 4274.17,4329.17 -160,-11.67 5,-30 -172.5,-46.67 0,0 172.5,46.67 5.83,-30 149.17,71.67"
             style="fill:#0000ff;fill-opacity:1;fill-rule:evenodd;stroke:none"
             id="path48" /><path
             d="m 4274.17,4329.17 -160,-11.67 5,-30 -172.5,-46.67 0,0 172.5,46.67 5.83,-30 149.17,71.67 0,0"
             style="fill:none;stroke:#0000ff;stroke-width:5;stroke-linecap:butt;stroke-linejoin:round;stroke-miterlimit:10;stroke-opacity:1;stroke-dasharray:none"
             id="path50" /><path
             d="m 4007.5,3615 -66.67,76.67 -30.83,-32.5 -154.17,70.83 0,0 154.17,-70.83 -30,-32.5 127.5,-11.67"
             style="fill:#00ff00;fill-opacity:1;fill-rule:evenodd;stroke:none"
             id="path52" /><path
             d="m 4007.5,3615 -66.67,76.67 -30.83,-32.5 -154.17,70.83 0,0 154.17,-70.83 -30,-32.5 127.5,-11.67 0,0"
             style="fill:none;stroke:#00ff00;stroke-width:5;stroke-linecap:butt;stroke-linejoin:round;stroke-miterlimit:10;stroke-opacity:1;stroke-dasharray:none"
             id="path54" /></g></g><g
         id="g56"><g
           id="g58"
           clip-path="url(#clipPath60)"><path
             d="M 3318.33,3899.17 1681.67,3455.83"
             style="fill:none;stroke:#000000;stroke-width:5;stroke-linecap:butt;stroke-linejoin:round;stroke-miterlimit:10;stroke-opacity:1;stroke-dasharray:none"
             id="path64" /><path
             d="M 3318.33,5160.84 1681.67,4717.5"
             style="fill:none;stroke:#000000;stroke-width:5;stroke-linecap:butt;stroke-linejoin:round;stroke-miterlimit:10;stroke-opacity:1;stroke-dasharray:none"
             id="path66" /><path
             d="m 3318.33,3899.17 0,1261.67"
             style="fill:none;stroke:#000000;stroke-width:5;stroke-linecap:butt;stroke-linejoin:round;stroke-miterlimit:10;stroke-opacity:1;stroke-dasharray:none"
             id="path68" /></g></g><g
         id="g70"><g
           id="g72"
           clip-path="url(#clipPath74)"><path
             d="m 3128.33,4902.5 60.84,-150 -60.84,0 0,-102.5 0,102.5 -61.66,0 61.66,150"
             style="fill:#ff0000;fill-opacity:1;fill-rule:evenodd;stroke:none"
             id="path78" /><path
             d="m 3128.33,4902.5 60.84,-150 -60.84,0 0,-102.5 0,102.5 -61.66,0 61.66,150 0,0"
             style="fill:none;stroke:#ff0000;stroke-width:5;stroke-linecap:butt;stroke-linejoin:round;stroke-miterlimit:10;stroke-opacity:1;stroke-dasharray:none"
             id="path80" /><path
             d="m 3127.5,3135.83 61.67,106.67 -60.84,0 -0.83,145.83 0,0 0.83,-145.83 -61.66,0 60.83,-106.67"
             style="fill:#ff0000;fill-opacity:1;fill-rule:evenodd;stroke:none"
             id="path82" /><path
             d="m 3127.5,3135.83 61.67,106.67 -60.84,0 -0.83,145.83 0,0 0.83,-145.83 -61.66,0 60.83,-106.67 0,0"
             style="fill:none;stroke:#ff0000;stroke-width:5;stroke-linecap:butt;stroke-linejoin:round;stroke-miterlimit:10;stroke-opacity:1;stroke-dasharray:none"
             id="path84" /></g></g><g
         id="g86"><g
           id="g88"
           clip-path="url(#clipPath90)"><path
             d="m 2937.5,2877.5 1636.67,443.33"
             style="fill:none;stroke:#000000;stroke-width:5;stroke-linecap:butt;stroke-linejoin:round;stroke-miterlimit:10;stroke-opacity:1;stroke-dasharray:none"
             id="path94" /><path
             d="M 2937.5,4139.17 4574.17,4582.5"
             style="fill:none;stroke:#000000;stroke-width:5;stroke-linecap:butt;stroke-linejoin:round;stroke-miterlimit:10;stroke-opacity:1;stroke-dasharray:none"
             id="path96" /><path
             d="m 2937.5,2877.5 0,1261.67"
             style="fill:none;stroke:#000000;stroke-width:5;stroke-linecap:butt;stroke-linejoin:round;stroke-miterlimit:10;stroke-opacity:1;stroke-dasharray:none"
             id="path98" /></g></g><g
         id="g100"><g
           id="g102"
           clip-path="url(#clipPath104)"><path
             d="m 2248.33,4423.34 173.34,-33.34 -27.5,-33.33 105.83,-48.34 0,0 -105.83,48.34 -28.34,-33.34 -117.5,100.01"
             style="fill:#00ff00;fill-opacity:1;fill-rule:evenodd;stroke:none"
             id="path108" /><path
             d="m 2248.33,4423.34 173.34,-33.34 -27.5,-33.33 105.83,-48.34 0,0 -105.83,48.34 -28.34,-33.34 -117.5,100.01 0,0"
             style="fill:none;stroke:#00ff00;stroke-width:5;stroke-linecap:butt;stroke-linejoin:round;stroke-miterlimit:10;stroke-opacity:1;stroke-dasharray:none"
             id="path110" /><path
             d="m 1981.67,3709.17 95,56.66 8.33,-29.16 224.17,60.83 0,0 -224.17,-60.83 8.33,-29.17 -111.66,1.67"
             style="fill:#0000ff;fill-opacity:1;fill-rule:evenodd;stroke:none"
             id="path112" /><path
             d="m 1981.67,3709.17 95,56.66 8.33,-29.16 224.17,60.83 0,0 -224.17,-60.83 8.33,-29.17 -111.66,1.67 0,0"
             style="fill:none;stroke:#0000ff;stroke-width:5;stroke-linecap:butt;stroke-linejoin:round;stroke-miterlimit:10;stroke-opacity:1;stroke-dasharray:none"
             id="path114" /></g></g><g
         id="g116"><g
           id="g118"
           clip-path="url(#clipPath120)"><path
             d="M 1681.67,3455.83 2937.5,2877.5"
             style="fill:none;stroke:#000000;stroke-width:5;stroke-linecap:butt;stroke-linejoin:round;stroke-miterlimit:10;stroke-opacity:1;stroke-dasharray:none"
             id="path124" /><path
             d="M 1681.67,4717.5 2937.5,4139.17"
             style="fill:none;stroke:#000000;stroke-width:5;stroke-linecap:butt;stroke-linejoin:round;stroke-miterlimit:10;stroke-opacity:1;stroke-dasharray:none"
             id="path126" /><path
             d="m 1681.67,3455.83 0,1261.67"
             style="fill:none;stroke:#000000;stroke-width:5;stroke-linecap:butt;stroke-linejoin:round;stroke-miterlimit:10;stroke-opacity:1;stroke-dasharray:none"
             id="path128" /></g></g></g></g></svg>