<?xml version="1.0" encoding="UTF-8" standalone="no"?>
<!-- Created with Inkscape (http://www.inkscape.org/) -->

<svg
   xmlns:dc="http://purl.org/dc/elements/1.1/"
   xmlns:cc="http://creativecommons.org/ns#"
   xmlns:rdf="http://www.w3.org/1999/02/22-rdf-syntax-ns#"
   xmlns:svg="http://www.w3.org/2000/svg"
   xmlns="http://www.w3.org/2000/svg"
   xmlns:sodipodi="http://sodipodi.sourceforge.net/DTD/sodipodi-0.dtd"
   xmlns:inkscape="http://www.inkscape.org/namespaces/inkscape"
   id="svg2"
   version="1.1"
   inkscape:version="0.47 r22583"
   width="560"
   height="420.10376"
   xml:space="preserve"
   sodipodi:docname="k1_W2_dofs.svg"><metadata
     id="metadata8"><rdf:RDF><cc:Work
         rdf:about=""><dc:format>image/svg+xml</dc:format><dc:type
           rdf:resource="http://purl.org/dc/dcmitype/StillImage" /><dc:title></dc:title></cc:Work></rdf:RDF></metadata><defs
     id="defs6"><inkscape:perspective
       sodipodi:type="inkscape:persp3d"
       inkscape:vp_x="0 : 0.5 : 1"
       inkscape:vp_y="0 : 1000 : 0"
       inkscape:vp_z="1 : 0.5 : 1"
       inkscape:persp3d-origin="0.5 : 0.33333333 : 1"
       id="perspective10" /><clipPath
       clipPathUnits="userSpaceOnUse"
       id="clipPath20"><path
         d="m 810,5640 4480,0 0,-3360.83 -4480,0 0,3360.83 z"
         id="path22" /></clipPath><clipPath
       clipPathUnits="userSpaceOnUse"
       id="clipPath62"><path
         d="m 1391.67,5389.17 3472.5,0 0,-2740 -3472.5,0 0,2740 z"
         id="path64" /></clipPath><clipPath
       clipPathUnits="userSpaceOnUse"
       id="clipPath72"><path
         d="m 810,5640 4480,0 0,-3360.83 -4480,0 0,3360.83 z"
         id="path74" /></clipPath><clipPath
       clipPathUnits="userSpaceOnUse"
       id="clipPath84"><path
         d="m 1391.67,5389.17 3472.5,0 0,-2740 -3472.5,0 0,2740 z"
         id="path86" /></clipPath><clipPath
       clipPathUnits="userSpaceOnUse"
       id="clipPath100"><path
         d="m 810,5640 4480,0 0,-3360.83 -4480,0 0,3360.83 z"
         id="path102" /></clipPath><clipPath
       clipPathUnits="userSpaceOnUse"
       id="clipPath116"><path
         d="m 1391.67,5389.17 3472.5,0 0,-2740 -3472.5,0 0,2740 z"
         id="path118" /></clipPath><clipPath
       clipPathUnits="userSpaceOnUse"
       id="clipPath128"><path
         d="m 810,5640 4480,0 0,-3360.83 -4480,0 0,3360.83 z"
         id="path130" /></clipPath><clipPath
       clipPathUnits="userSpaceOnUse"
       id="clipPath148"><path
         d="m 1391.67,5389.17 3472.5,0 0,-2740 -3472.5,0 0,2740 z"
         id="path150" /></clipPath><clipPath
       clipPathUnits="userSpaceOnUse"
       id="clipPath160"><path
         d="m 810,5640 4480,0 0,-3360.83 -4480,0 0,3360.83 z"
         id="path162" /></clipPath><clipPath
       clipPathUnits="userSpaceOnUse"
       id="clipPath176"><path
         d="m 1391.67,5389.17 3472.5,0 0,-2740 -3472.5,0 0,2740 z"
         id="path178" /></clipPath><clipPath
       clipPathUnits="userSpaceOnUse"
       id="clipPath188"><path
         d="m 810,5640 4480,0 0,-3360.83 -4480,0 0,3360.83 z"
         id="path190" /></clipPath><clipPath
       clipPathUnits="userSpaceOnUse"
       id="clipPath200"><path
         d="m 1391.67,5389.17 3472.5,0 0,-2740 -3472.5,0 0,2740 z"
         id="path202" /></clipPath><clipPath
       clipPathUnits="userSpaceOnUse"
       id="clipPath210"><path
         d="m 810,5640 4480,0 0,-3360.83 -4480,0 0,3360.83 z"
         id="path212" /></clipPath><clipPath
       clipPathUnits="userSpaceOnUse"
       id="clipPath238"><path
         d="m 1391.67,5389.17 3472.5,0 0,-2740 -3472.5,0 0,2740 z"
         id="path240" /></clipPath><clipPath
       clipPathUnits="userSpaceOnUse"
       id="clipPath248"><path
         d="m 810,5640 4480,0 0,-3360.83 -4480,0 0,3360.83 z"
         id="path250" /></clipPath><clipPath
       clipPathUnits="userSpaceOnUse"
       id="clipPath272"><path
         d="m 1391.67,5389.17 3472.5,0 0,-2740 -3472.5,0 0,2740 z"
         id="path274" /></clipPath><clipPath
       clipPathUnits="userSpaceOnUse"
       id="clipPath282"><path
         d="m 810,5640 4480,0 0,-3360.83 -4480,0 0,3360.83 z"
         id="path284" /></clipPath><clipPath
       clipPathUnits="userSpaceOnUse"
       id="clipPath302"><path
         d="m 1391.67,5389.17 3472.5,0 0,-2740 -3472.5,0 0,2740 z"
         id="path304" /></clipPath><clipPath
       clipPathUnits="userSpaceOnUse"
       id="clipPath322"><path
         d="m 810,5640 4480,0 0,-3360.83 -4480,0 0,3360.83 z"
         id="path324" /></clipPath><clipPath
       clipPathUnits="userSpaceOnUse"
       id="clipPath334"><path
         d="m 1391.67,5389.17 3472.5,0 0,-2740 -3472.5,0 0,2740 z"
         id="path336" /></clipPath><clipPath
       clipPathUnits="userSpaceOnUse"
       id="clipPath348"><path
         d="m 810,5640 4480,0 0,-3360.83 -4480,0 0,3360.83 z"
         id="path350" /></clipPath><clipPath
       clipPathUnits="userSpaceOnUse"
       id="clipPath380"><path
         d="m 1391.67,5389.17 3472.5,0 0,-2740 -3472.5,0 0,2740 z"
         id="path382" /></clipPath><inkscape:perspective
       id="perspective3948"
       inkscape:persp3d-origin="0.5 : 0.33333333 : 1"
       inkscape:vp_z="1 : 0.5 : 1"
       inkscape:vp_y="0 : 1000 : 0"
       inkscape:vp_x="0 : 0.5 : 1"
       sodipodi:type="inkscape:persp3d" /><filter
       color-interpolation-filters="sRGB"
       inkscape:collect="always"
       id="filter3885"><feGaussianBlur
         inkscape:collect="always"
         stdDeviation="0.44622652"
         id="feGaussianBlur3887" /></filter></defs><sodipodi:namedview
     pagecolor="#ffffff"
     bordercolor="#666666"
     borderopacity="1"
     objecttolerance="10"
     gridtolerance="10"
     guidetolerance="10"
     inkscape:pageopacity="0"
     inkscape:pageshadow="2"
     inkscape:window-width="1178"
     inkscape:window-height="1002"
     id="namedview4"
     showgrid="false"
     inkscape:zoom="1.9070707"
     inkscape:cx="281.25"
     inkscape:cy="193.32409"
     inkscape:window-x="0"
     inkscape:window-y="25"
     inkscape:window-maximized="0"
     inkscape:current-layer="g12" /><g
     id="g12"
     inkscape:groupmode="layer"
     inkscape:label="ink_ext_XXXXXX"
     transform="matrix(1.25,0,0,-1.25,-101.25,705)"><g
       id="g14"
       transform="scale(0.1,0.1)"><g
         id="g16"><g
           id="g18"
           clip-path="url(#clipPath20)"><path
             d="m 810,2279.17 4480,0 0,3360.83 -4480,0 0,-3360.83 z"
             style="fill:#ffffff;fill-opacity:1;fill-rule:nonzero;stroke:none"
             id="path24" /><path
             d="m 4901.67,3410 -221.67,3.33 15.83,-59.16 -121.66,-33.34 0,0 121.66,33.34 15.84,-59.17 190,115"
             style="fill:#0000ff;fill-opacity:1;fill-rule:evenodd;stroke:none"
             id="path26" /><path
             d="m 4901.67,3410 -221.67,3.33 15.83,-59.16 -121.66,-33.34 0,0 121.66,33.34 15.84,-59.17 190,115 0,0"
             style="fill:none;stroke:#0000ff;stroke-width:5;stroke-linecap:butt;stroke-linejoin:round;stroke-miterlimit:10;stroke-opacity:1;stroke-dasharray:none"
             id="path28" /><path
             d="M 4901.67,4671.67 4680,4675 l 15.83,-59.17 -121.66,-33.33 0,0 121.66,33.33 15.84,-59.16 190,115"
             style="fill:#0000ff;fill-opacity:1;fill-rule:evenodd;stroke:none"
             id="path30" /><path
             d="M 4901.67,4671.67 4680,4675 l 15.83,-59.17 -121.66,-33.33 0,0 121.66,33.33 15.84,-59.16 190,115 0,0"
             style="fill:none;stroke:#0000ff;stroke-width:5;stroke-linecap:butt;stroke-linejoin:round;stroke-miterlimit:10;stroke-opacity:1;stroke-dasharray:none"
             id="path32" /><path
             d="m 4323.33,4698.34 219.17,-33.34 -25.83,-55.83 57.5,-26.67 0,0 -57.5,26.67 -25,-55.84 -168.34,145.01"
             style="fill:#00ff00;fill-opacity:1;fill-rule:evenodd;stroke:none"
             id="path34" /><path
             d="m 4323.33,4698.34 219.17,-33.34 -25.83,-55.83 57.5,-26.67 0,0 -57.5,26.67 -25,-55.84 -168.34,145.01 0,0"
             style="fill:none;stroke:#00ff00;stroke-width:5;stroke-linecap:butt;stroke-linejoin:round;stroke-miterlimit:10;stroke-opacity:1;stroke-dasharray:none"
             id="path36" /><path
             d="m 4574.17,4835 61.66,-213.33 -61.66,0 0,-39.17 0,39.17 -60.84,0 60.84,213.33"
             style="fill:#ff0000;fill-opacity:1;fill-rule:evenodd;stroke:none"
             id="path38" /><path
             d="m 4574.17,4835 61.66,-213.33 -61.66,0 0,-39.17 0,39.17 -60.84,0 60.84,213.33 0,0"
             style="fill:none;stroke:#ff0000;stroke-width:5;stroke-linecap:butt;stroke-linejoin:round;stroke-miterlimit:10;stroke-opacity:1;stroke-dasharray:none"
             id="path40" /><path
             d="m 4323.33,3436.67 210.84,-35.84 -17.5,-53.33 57.5,-26.67 0,0 -57.5,26.67 -16.67,-53.33 -176.67,142.5"
             style="fill:#00ff00;fill-opacity:1;fill-rule:evenodd;stroke:none"
             id="path42" /><path
             d="m 4323.33,3436.67 210.84,-35.84 -17.5,-53.33 57.5,-26.67 0,0 -57.5,26.67 -16.67,-53.33 -176.67,142.5 0,0"
             style="fill:none;stroke:#00ff00;stroke-width:5;stroke-linecap:butt;stroke-linejoin:round;stroke-miterlimit:10;stroke-opacity:1;stroke-dasharray:none"
             id="path44" /><path
             d="m 4574.17,3573.33 61.66,-213.33 -61.66,0 0,-39.17 0,39.17 -60.84,0 60.84,213.33"
             style="fill:#ff0000;fill-opacity:1;fill-rule:evenodd;stroke:none"
             id="path46" /><path
             d="m 4574.17,3573.33 61.66,-213.33 -61.66,0 0,-39.17 0,39.17 -60.84,0 60.84,213.33 0,0"
             style="fill:none;stroke:#ff0000;stroke-width:5;stroke-linecap:butt;stroke-linejoin:round;stroke-miterlimit:10;stroke-opacity:1;stroke-dasharray:none"
             id="path48" /><path
             d="m 4574.17,4204.17 61.66,-213.34 -61.66,0 0,-39.16 0,39.16 -60.84,0 60.84,213.34"
             style="fill:#ff0000;fill-opacity:1;fill-rule:evenodd;stroke:none"
             id="path50" /><path
             d="m 4574.17,4204.17 61.66,-213.34 -61.66,0 0,-39.16 0,39.16 -60.84,0 60.84,213.34 0,0"
             style="fill:none;stroke:#ff0000;stroke-width:5;stroke-linecap:butt;stroke-linejoin:round;stroke-miterlimit:10;stroke-opacity:1;stroke-dasharray:none"
             id="path52" /><path
             d="m 3695,3725.83 219.17,-33.33 -25,-55.83 57.5,-26.67 0,0 -57.5,26.67 -25.84,-55.84 -168.33,145"
             style="fill:#00ff00;fill-opacity:1;fill-rule:evenodd;stroke:none"
             id="path54" /><path
             d="m 3695,3725.83 219.17,-33.33 -25,-55.83 57.5,-26.67 0,0 -57.5,26.67 -25.84,-55.84 -168.33,145 0,0"
             style="fill:none;stroke:#00ff00;stroke-width:5;stroke-linecap:butt;stroke-linejoin:round;stroke-miterlimit:10;stroke-opacity:1;stroke-dasharray:none"
             id="path56" /></g></g><g
         id="g58"><g
           id="g60"
           clip-path="url(#clipPath62)"><path
             d="M 4574.17,3320.83 3318.33,3899.17"
             style="fill:none;stroke:#000000;stroke-width:5;stroke-linecap:butt;stroke-linejoin:round;stroke-miterlimit:10;stroke-opacity:1;stroke-dasharray:none"
             id="path66" /></g></g><g
         id="g68"><g
           id="g70"
           clip-path="url(#clipPath72)"><path
             d="m 3695,4987.5 219.17,-34.17 -25,-55 57.5,-26.66 0,0 -57.5,26.66 -25.84,-55.83 -168.33,145"
             style="fill:#00ff00;fill-opacity:1;fill-rule:evenodd;stroke:none"
             id="path76" /><path
             d="m 3695,4987.5 219.17,-34.17 -25,-55 57.5,-26.66 0,0 -57.5,26.66 -25.84,-55.83 -168.33,145 0,0"
             style="fill:none;stroke:#00ff00;stroke-width:5;stroke-linecap:butt;stroke-linejoin:round;stroke-miterlimit:10;stroke-opacity:1;stroke-dasharray:none"
             id="path78" /></g></g><g
         id="g80"><g
           id="g82"
           clip-path="url(#clipPath84)"><path
             d="M 4574.17,4582.5 3318.33,5160.84"
             style="fill:none;stroke:#000000;stroke-width:5;stroke-linecap:butt;stroke-linejoin:round;stroke-miterlimit:10;stroke-opacity:1;stroke-dasharray:none"
             id="path88" /><path
             d="m 4574.17,3320.83 0,1261.67"
             style="fill:none;stroke:#000000;stroke-width:5;stroke-linecap:butt;stroke-linejoin:round;stroke-miterlimit:10;stroke-opacity:1;stroke-dasharray:none"
             id="path90" /><path
             d="m 3946.67,3610 0,1261.67"
             style="fill:none;stroke:#b2b2b2;stroke-width:5;stroke-linecap:butt;stroke-linejoin:round;stroke-miterlimit:10;stroke-opacity:1;stroke-dasharray:none"
             id="path92" /><path
             d="M 4574.17,3951.67 3318.33,4530"
             style="fill:none;stroke:#b2b2b2;stroke-width:5;stroke-linecap:butt;stroke-linejoin:round;stroke-miterlimit:10;stroke-opacity:1;stroke-dasharray:none"
             id="path94" /></g></g><g
         id="g96"><g
           id="g98"
           clip-path="url(#clipPath100)"><path
             d="m 4083.33,4450 -173.33,15.83 19.17,-58.33 -173.34,-46.67 0,0 173.34,46.67 18.33,-58.33 135.83,100.83"
             style="fill:#0000ff;fill-opacity:1;fill-rule:evenodd;stroke:none"
             id="path104" /><path
             d="m 4083.33,4450 -173.33,15.83 19.17,-58.33 -173.34,-46.67 0,0 173.34,46.67 18.33,-58.33 135.83,100.83 0,0"
             style="fill:none;stroke:#0000ff;stroke-width:5;stroke-linecap:butt;stroke-linejoin:round;stroke-miterlimit:10;stroke-opacity:1;stroke-dasharray:none"
             id="path106" /><path
             d="M 4083.33,3188.33 3910,3205 l 19.17,-58.33 -173.34,-47.5 0,0 173.34,47.5 18.33,-58.34 135.83,100"
             style="fill:#0000ff;fill-opacity:1;fill-rule:evenodd;stroke:none"
             id="path108" /><path
             d="M 4083.33,3188.33 3910,3205 l 19.17,-58.33 -173.34,-47.5 0,0 173.34,47.5 18.33,-58.34 135.83,100 0,0"
             style="fill:none;stroke:#0000ff;stroke-width:5;stroke-linecap:butt;stroke-linejoin:round;stroke-miterlimit:10;stroke-opacity:1;stroke-dasharray:none"
             id="path110" /></g></g><g
         id="g112"><g
           id="g114"
           clip-path="url(#clipPath116)"><path
             d="m 3755.83,3099.17 0,1261.67"
             style="fill:none;stroke:#b2b2b2;stroke-width:5;stroke-linecap:butt;stroke-linejoin:round;stroke-miterlimit:10;stroke-opacity:1;stroke-dasharray:none"
             id="path120" /><path
             d="M 3755.83,3099.17 2500,3677.5"
             style="fill:none;stroke:#b2b2b2;stroke-width:5;stroke-linecap:butt;stroke-linejoin:round;stroke-miterlimit:10;stroke-opacity:1;stroke-dasharray:none"
             id="path122" /></g></g><g
         id="g124"><g
           id="g126"
           clip-path="url(#clipPath128)"><path
             d="m 3318.33,4781.67 60.84,-213.34 -60.84,0 0,-38.33 0,38.33 -60.83,0 60.83,213.34"
             style="fill:#ff0000;fill-opacity:1;fill-rule:evenodd;stroke:none"
             id="path132" /><path
             d="m 3318.33,4781.67 60.84,-213.34 -60.84,0 0,-38.33 0,38.33 -60.83,0 60.83,213.34 0,0"
             style="fill:none;stroke:#ff0000;stroke-width:5;stroke-linecap:butt;stroke-linejoin:round;stroke-miterlimit:10;stroke-opacity:1;stroke-dasharray:none"
             id="path134" /><path
             d="m 3067.5,4014.17 219.17,-33.34 -25.84,-55 57.5,-26.66 0,0 -57.5,26.66 L 3235,3870 3067.5,4014.17"
             style="fill:#00ff00;fill-opacity:1;fill-rule:evenodd;stroke:none"
             id="path136" /><path
             d="m 3067.5,4014.17 219.17,-33.34 -25.84,-55 57.5,-26.66 0,0 -57.5,26.66 -25.83,-55.83 -167.5,144.17 0,0"
             style="fill:none;stroke:#00ff00;stroke-width:5;stroke-linecap:butt;stroke-linejoin:round;stroke-miterlimit:10;stroke-opacity:1;stroke-dasharray:none"
             id="path138" /><path
             d="m 3318.33,4151.67 60.84,-213.34 -60.84,0 0,-39.16 0,39.16 -60.83,0 60.83,213.34"
             style="fill:#ff0000;fill-opacity:1;fill-rule:evenodd;stroke:none"
             id="path140" /><path
             d="m 3318.33,4151.67 60.84,-213.34 -60.84,0 0,-39.16 0,39.16 -60.83,0 60.83,213.34 0,0"
             style="fill:none;stroke:#ff0000;stroke-width:5;stroke-linecap:butt;stroke-linejoin:round;stroke-miterlimit:10;stroke-opacity:1;stroke-dasharray:none"
             id="path142" /></g></g><g
         id="g144"><g
           id="g146"
           clip-path="url(#clipPath148)"><path
             d="m 3318.33,3899.17 0,1261.67"
             style="fill:none;stroke:#000000;stroke-width:5;stroke-linecap:butt;stroke-linejoin:round;stroke-miterlimit:10;stroke-opacity:1;stroke-dasharray:none"
             id="path152" /><path
             d="M 3755.83,4360.84 2500,4939.17"
             style="fill:none;stroke:#b2b2b2;stroke-width:5;stroke-linecap:butt;stroke-linejoin:round;stroke-miterlimit:10;stroke-opacity:1;stroke-dasharray:none"
             id="path154" /></g></g><g
         id="g156"><g
           id="g158"
           clip-path="url(#clipPath160)"><path
             d="m 2009.17,3544.17 -166.67,0 11.67,-41.67 -172.5,-46.67 0,0 172.5,46.67 12.5,-41.67 142.5,83.34"
             style="fill:#0000ff;fill-opacity:1;fill-rule:evenodd;stroke:none"
             id="path164" /><path
             d="m 2009.17,3544.17 -166.67,0 11.67,-41.67 -172.5,-46.67 0,0 172.5,46.67 12.5,-41.67 142.5,83.34 0,0"
             style="fill:none;stroke:#0000ff;stroke-width:5;stroke-linecap:butt;stroke-linejoin:round;stroke-miterlimit:10;stroke-opacity:1;stroke-dasharray:none"
             id="path166" /><path
             d="m 2827.5,3765.83 -173.33,16.67 18.33,-58.33 -172.5,-46.67 0,0 172.5,46.67 19.17,-58.34 135.83,100"
             style="fill:#0000ff;fill-opacity:1;fill-rule:evenodd;stroke:none"
             id="path168" /><path
             d="m 2827.5,3765.83 -173.33,16.67 18.33,-58.33 -172.5,-46.67 0,0 172.5,46.67 19.17,-58.34 135.83,100 0,0"
             style="fill:none;stroke:#0000ff;stroke-width:5;stroke-linecap:butt;stroke-linejoin:round;stroke-miterlimit:10;stroke-opacity:1;stroke-dasharray:none"
             id="path170" /></g></g><g
         id="g172"><g
           id="g174"
           clip-path="url(#clipPath176)"><path
             d="M 3318.33,3899.17 1681.67,3455.83"
             style="fill:none;stroke:#000000;stroke-width:5;stroke-linecap:butt;stroke-linejoin:round;stroke-miterlimit:10;stroke-opacity:1;stroke-dasharray:none"
             id="path180" /><path
             d="m 3127.5,3388.33 0,1261.67"
             style="fill:none;stroke:#b2b2b2;stroke-width:5;stroke-linecap:butt;stroke-linejoin:round;stroke-miterlimit:10;stroke-opacity:1;stroke-dasharray:none"
             id="path182" /></g></g><g
         id="g184"><g
           id="g186"
           clip-path="url(#clipPath188)"><path
             d="m 3645.83,3987.5 -221.66,3.33 15.83,-59.16 -121.67,-32.5 0,0 121.67,32.5 15.83,-59.17 190,115"
             style="fill:#0000ff;fill-opacity:1;fill-rule:evenodd;stroke:none"
             id="path192" /><path
             d="m 3645.83,3987.5 -221.66,3.33 15.83,-59.16 -121.67,-32.5 0,0 121.67,32.5 15.83,-59.17 190,115 0,0"
             style="fill:none;stroke:#0000ff;stroke-width:5;stroke-linecap:butt;stroke-linejoin:round;stroke-miterlimit:10;stroke-opacity:1;stroke-dasharray:none"
             id="path194" /></g></g><g
         id="g196"><g
           id="g198"
           clip-path="url(#clipPath200)"><path
             d="M 3755.83,3730 2500,4308.34"
             style="fill:none;stroke:#b2b2b2;stroke-width:5;stroke-linecap:butt;stroke-linejoin:round;stroke-miterlimit:10;stroke-opacity:1;stroke-dasharray:none"
             id="path204" /></g></g><g
         id="g206"><g
           id="g208"
           clip-path="url(#clipPath210)"><path
             d="m 3645.83,5249.17 -221.66,3.33 15.83,-59.17 -121.67,-32.5 0,0 121.67,32.5 15.83,-59.16 190,115"
             style="fill:#0000ff;fill-opacity:1;fill-rule:evenodd;stroke:none"
             id="path214" /><path
             d="m 3645.83,5249.17 -221.66,3.33 15.83,-59.17 -121.67,-32.5 0,0 121.67,32.5 15.83,-59.16 190,115 0,0"
             style="fill:none;stroke:#0000ff;stroke-width:5;stroke-linecap:butt;stroke-linejoin:round;stroke-miterlimit:10;stroke-opacity:1;stroke-dasharray:none"
             id="path216" /><path
             d="m 3067.5,5275.84 219.17,-33.34 -25.84,-55.83 57.5,-25.84 0,0 -57.5,25.84 -25.83,-55 -167.5,144.17"
             style="fill:#00ff00;fill-opacity:1;fill-rule:evenodd;stroke:none"
             id="path218" /><path
             d="m 3067.5,5275.84 219.17,-33.34 -25.84,-55.83 57.5,-25.84 0,0 -57.5,25.84 -25.83,-55 -167.5,144.17 0,0"
             style="fill:none;stroke:#00ff00;stroke-width:5;stroke-linecap:butt;stroke-linejoin:round;stroke-miterlimit:10;stroke-opacity:1;stroke-dasharray:none"
             id="path220" /><path
             d="m 3318.33,5412.5 60.84,-213.33 -60.84,0 0,-38.34 0,38.34 -60.83,0 60.83,213.33"
             style="fill:#ff0000;fill-opacity:1;fill-rule:evenodd;stroke:none"
             id="path222" /><path
             d="m 3318.33,5412.5 60.84,-213.33 -60.84,0 0,-38.34 0,38.34 -60.83,0 60.83,213.33 0,0"
             style="fill:none;stroke:#ff0000;stroke-width:5;stroke-linecap:butt;stroke-linejoin:round;stroke-miterlimit:10;stroke-opacity:1;stroke-dasharray:none"
             id="path224" /><path
             d="m 2009.17,4805.84 -173.34,16.66 18.34,-58.33 -172.5,-46.67 0,0 172.5,46.67 18.33,-58.34 136.67,100.01"
             style="fill:#0000ff;fill-opacity:1;fill-rule:evenodd;stroke:none"
             id="path226" /><path
             d="m 2009.17,4805.84 -173.34,16.66 18.34,-58.33 -172.5,-46.67 0,0 172.5,46.67 18.33,-58.34 136.67,100.01 0,0"
             style="fill:none;stroke:#0000ff;stroke-width:5;stroke-linecap:butt;stroke-linejoin:round;stroke-miterlimit:10;stroke-opacity:1;stroke-dasharray:none"
             id="path228" /><path
             d="m 2827.5,5027.5 -222.5,3.33 16.67,-59.16 -121.67,-32.5 0,0 121.67,32.5 15.83,-59.17 190,115"
             style="fill:#0000ff;fill-opacity:1;fill-rule:evenodd;stroke:none"
             id="path230" /><path
             d="m 2827.5,5027.5 -222.5,3.33 16.67,-59.16 -121.67,-32.5 0,0 121.67,32.5 15.83,-59.17 190,115 0,0"
             style="fill:none;stroke:#0000ff;stroke-width:5;stroke-linecap:butt;stroke-linejoin:round;stroke-miterlimit:10;stroke-opacity:1;stroke-dasharray:none"
             id="path232" /></g></g><g
         id="g234"><g
           id="g236"
           clip-path="url(#clipPath238)"><path
             d="M 3318.33,5160.84 1681.67,4717.5"
             style="fill:none;stroke:#000000;stroke-width:5;stroke-linecap:butt;stroke-linejoin:round;stroke-miterlimit:10;stroke-opacity:1;stroke-dasharray:none"
             id="path242" /></g></g><g
         id="g244"><g
           id="g246"
           clip-path="url(#clipPath248)"><path
             d="m 3265,4228.34 -166.67,0 12.5,-42.51 -173.33,-46.66 0,0 173.33,46.66 11.67,-41.66 142.5,84.17"
             style="fill:#0000ff;fill-opacity:1;fill-rule:evenodd;stroke:none"
             id="path252" /><path
             d="m 3265,4228.34 -166.67,0 12.5,-42.51 -173.33,-46.66 0,0 173.33,46.66 11.67,-41.66 142.5,84.17 0,0"
             style="fill:none;stroke:#0000ff;stroke-width:5;stroke-linecap:butt;stroke-linejoin:round;stroke-miterlimit:10;stroke-opacity:1;stroke-dasharray:none"
             id="path254" /><path
             d="m 3265,2966.67 -110.83,1.66 7.5,-30 -224.17,-60.83 0,0 224.17,60.83 8.33,-29.16 95,57.5"
             style="fill:#0000ff;fill-opacity:1;fill-rule:evenodd;stroke:none"
             id="path256" /><path
             d="m 3265,2966.67 -110.83,1.66 7.5,-30 -224.17,-60.83 0,0 224.17,60.83 8.33,-29.16 95,57.5 0,0"
             style="fill:none;stroke:#0000ff;stroke-width:5;stroke-linecap:butt;stroke-linejoin:round;stroke-miterlimit:10;stroke-opacity:1;stroke-dasharray:none"
             id="path258" /><path
             d="m 2937.5,4391.67 51.67,-151.67 -51.67,2.5 0,-103.33 0,103.33 -51.67,2.5 51.67,146.67"
             style="fill:#ff0000;fill-opacity:1;fill-rule:evenodd;stroke:none"
             id="path260" /><path
             d="m 2937.5,4391.67 51.67,-151.67 -51.67,2.5 0,-103.33 0,103.33 -51.67,2.5 51.67,146.67 0,0"
             style="fill:none;stroke:#ff0000;stroke-width:5;stroke-linecap:butt;stroke-linejoin:round;stroke-miterlimit:10;stroke-opacity:1;stroke-dasharray:none"
             id="path262" /><path
             d="m 2937.5,3130 45.83,-149.17 -45.83,0 0,-103.33 0,103.33 -45.83,0 45.83,149.17"
             style="fill:#ff0000;fill-opacity:1;fill-rule:evenodd;stroke:none"
             id="path264" /><path
             d="m 2937.5,3130 45.83,-149.17 -45.83,0 0,-103.33 0,103.33 -45.83,0 45.83,149.17 0,0"
             style="fill:none;stroke:#ff0000;stroke-width:5;stroke-linecap:butt;stroke-linejoin:round;stroke-miterlimit:10;stroke-opacity:1;stroke-dasharray:none"
             id="path266" /></g></g><g
         id="g268"><g
           id="g270"
           clip-path="url(#clipPath272)"><path
             d="m 2937.5,2877.5 0,1261.67"
             style="fill:none;stroke:#000000;stroke-width:5;stroke-linecap:butt;stroke-linejoin:round;stroke-miterlimit:10;stroke-opacity:1;stroke-dasharray:none"
             id="path276" /></g></g><g
         id="g278"><g
           id="g280"
           clip-path="url(#clipPath282)"><path
             d="m 2937.5,3760.83 45.83,-149.16 -45.83,0 0,-103.34 0,103.34 -45.83,0 45.83,149.16"
             style="fill:#ff0000;fill-opacity:1;fill-rule:evenodd;stroke:none"
             id="path286" /><path
             d="m 2937.5,3760.83 45.83,-149.16 -45.83,0 0,-103.34 0,103.34 -45.83,0 45.83,149.16 0,0"
             style="fill:none;stroke:#ff0000;stroke-width:5;stroke-linecap:butt;stroke-linejoin:round;stroke-miterlimit:10;stroke-opacity:1;stroke-dasharray:none"
             id="path288" /><path
             d="m 2686.67,2993.33 155,-29.16 -10,-37.5 105.83,-49.17 0,0 -105.83,49.17 -10.84,-37.5 -134.16,104.16"
             style="fill:#00ff00;fill-opacity:1;fill-rule:evenodd;stroke:none"
             id="path290" /><path
             d="m 2686.67,2993.33 155,-29.16 -10,-37.5 105.83,-49.17 0,0 -105.83,49.17 -10.84,-37.5 -134.16,104.16 0,0"
             style="fill:none;stroke:#00ff00;stroke-width:5;stroke-linecap:butt;stroke-linejoin:round;stroke-miterlimit:10;stroke-opacity:1;stroke-dasharray:none"
             id="path292" /><path
             d="m 2686.67,4255 164.16,-27.5 -19.16,-39.17 105.83,-49.16 0,0 -105.83,49.16 -19.17,-40 -125.83,106.67"
             style="fill:#00ff00;fill-opacity:1;fill-rule:evenodd;stroke:none"
             id="path294" /><path
             d="m 2686.67,4255 164.16,-27.5 -19.16,-39.17 105.83,-49.16 0,0 -105.83,49.16 -19.17,-40 -125.83,106.67 0,0"
             style="fill:none;stroke:#00ff00;stroke-width:5;stroke-linecap:butt;stroke-linejoin:round;stroke-miterlimit:10;stroke-opacity:1;stroke-dasharray:none"
             id="path296" /></g></g><g
         id="g298"><g
           id="g300"
           clip-path="url(#clipPath302)"><path
             d="m 2937.5,2877.5 1636.67,443.33"
             style="fill:none;stroke:#000000;stroke-width:5;stroke-linecap:butt;stroke-linejoin:round;stroke-miterlimit:10;stroke-opacity:1;stroke-dasharray:none"
             id="path306" /><path
             d="M 2937.5,4139.17 4574.17,4582.5"
             style="fill:none;stroke:#000000;stroke-width:5;stroke-linecap:butt;stroke-linejoin:round;stroke-miterlimit:10;stroke-opacity:1;stroke-dasharray:none"
             id="path308" /><path
             d="m 2309.17,3166.67 0,1261.67"
             style="fill:none;stroke:#b2b2b2;stroke-width:5;stroke-linecap:butt;stroke-linejoin:round;stroke-miterlimit:10;stroke-opacity:1;stroke-dasharray:none"
             id="path310" /><path
             d="m 2500,3677.5 0,1261.67"
             style="fill:none;stroke:#b2b2b2;stroke-width:5;stroke-linecap:butt;stroke-linejoin:round;stroke-miterlimit:10;stroke-opacity:1;stroke-dasharray:none"
             id="path312" /><path
             d="M 2937.5,3508.33 1681.67,4086.67"
             style="fill:none;stroke:#b2b2b2;stroke-width:5;stroke-linecap:butt;stroke-linejoin:round;stroke-miterlimit:10;stroke-opacity:1;stroke-dasharray:none"
             id="path314" /><path
             d="m 2937.5,3508.33 1636.67,443.34"
             style="fill:none;stroke:#b2b2b2;stroke-width:5;stroke-linecap:butt;stroke-linejoin:round;stroke-miterlimit:10;stroke-opacity:1;stroke-dasharray:none"
             id="path316" /></g></g><g
         id="g318"><g
           id="g320"
           clip-path="url(#clipPath322)"><path
             d="m 2058.33,3282.5 210.84,-48.33 -17.5,-40.84 57.5,-26.66 0,0 -57.5,26.66 -16.67,-40.83 -176.67,130"
             style="fill:#00ff00;fill-opacity:1;fill-rule:evenodd;stroke:none"
             id="path326" /><path
             d="m 2058.33,3282.5 210.84,-48.33 -17.5,-40.84 57.5,-26.66 0,0 -57.5,26.66 -16.67,-40.83 -176.67,130 0,0"
             style="fill:none;stroke:#00ff00;stroke-width:5;stroke-linecap:butt;stroke-linejoin:round;stroke-miterlimit:10;stroke-opacity:1;stroke-dasharray:none"
             id="path328" /></g></g><g
         id="g330"><g
           id="g332"
           clip-path="url(#clipPath334)"><path
             d="M 2309.17,3166.67 3946.67,3610"
             style="fill:none;stroke:#b2b2b2;stroke-width:5;stroke-linecap:butt;stroke-linejoin:round;stroke-miterlimit:10;stroke-opacity:1;stroke-dasharray:none"
             id="path338" /><path
             d="m 2309.17,4428.34 1637.5,443.33"
             style="fill:none;stroke:#b2b2b2;stroke-width:5;stroke-linecap:butt;stroke-linejoin:round;stroke-miterlimit:10;stroke-opacity:1;stroke-dasharray:none"
             id="path340" /><path
             d="m 2309.17,3797.5 1637.5,443.34"
             style="fill:none;stroke:#b2b2b2;stroke-width:5;stroke-linecap:butt;stroke-linejoin:round;stroke-miterlimit:10;stroke-opacity:1;stroke-dasharray:none"
             id="path342" /></g></g><g
         id="g344"><g
           id="g346"
           clip-path="url(#clipPath348)"><path
             d="m 2058.33,4544.17 210.84,-36.67 -17.5,-52.5 57.5,-26.67 0,0 -57.5,26.67 -16.67,-53.33 -176.67,142.5"
             style="fill:#00ff00;fill-opacity:1;fill-rule:evenodd;stroke:none"
             id="path352" /><path
             d="m 2058.33,4544.17 210.84,-36.67 -17.5,-52.5 57.5,-26.67 0,0 -57.5,26.67 -16.67,-53.33 -176.67,142.5 0,0"
             style="fill:none;stroke:#00ff00;stroke-width:5;stroke-linecap:butt;stroke-linejoin:round;stroke-miterlimit:10;stroke-opacity:1;stroke-dasharray:none"
             id="path354" /><path
             d="m 1430,3570.83 210.83,-35.83 -16.66,-53.33 57.5,-25.84 0,0 -57.5,25.84 -16.67,-52.5 -177.5,141.66"
             style="fill:#00ff00;fill-opacity:1;fill-rule:evenodd;stroke:none"
             id="path356" /><path
             d="m 1430,3570.83 210.83,-35.83 -16.66,-53.33 57.5,-25.84 0,0 -57.5,25.84 -16.67,-52.5 -177.5,141.66 0,0"
             style="fill:none;stroke:#00ff00;stroke-width:5;stroke-linecap:butt;stroke-linejoin:round;stroke-miterlimit:10;stroke-opacity:1;stroke-dasharray:none"
             id="path358" /><path
             d="m 1681.67,3708.33 51.66,-216.66 -51.66,2.5 0,-38.34 0,38.34 -51.67,3.33 51.67,210.83"
             style="fill:#ff0000;fill-opacity:1;fill-rule:evenodd;stroke:none"
             id="path360" /><path
             d="m 1681.67,3708.33 51.66,-216.66 -51.66,2.5 0,-38.34 0,38.34 -51.67,3.33 51.67,210.83 0,0"
             style="fill:none;stroke:#ff0000;stroke-width:5;stroke-linecap:butt;stroke-linejoin:round;stroke-miterlimit:10;stroke-opacity:1;stroke-dasharray:none"
             id="path362" /><path
             d="m 1681.67,4338.34 51.66,-215.84 -51.66,2.5 0,-38.33 0,38.33 -51.67,2.5 51.67,210.84"
             style="fill:#ff0000;fill-opacity:1;fill-rule:evenodd;stroke:none"
             id="path364" /><path
             d="m 1681.67,4338.34 51.66,-215.84 -51.66,2.5 0,-38.33 0,38.33 -51.67,2.5 51.67,210.84 0,0"
             style="fill:none;stroke:#ff0000;stroke-width:5;stroke-linecap:butt;stroke-linejoin:round;stroke-miterlimit:10;stroke-opacity:1;stroke-dasharray:none"
             id="path366" /><path
             d="m 1430,4832.5 210.83,-35.83 -16.66,-53.34 57.5,-25.83 0,0 -57.5,25.83 L 1607.5,4690 1430,4832.5"
             style="fill:#00ff00;fill-opacity:1;fill-rule:evenodd;stroke:none"
             id="path368" /><path
             d="m 1430,4832.5 210.83,-35.83 -16.66,-53.34 57.5,-25.83 0,0 -57.5,25.83 -16.67,-53.33 -177.5,142.5 0,0"
             style="fill:none;stroke:#00ff00;stroke-width:5;stroke-linecap:butt;stroke-linejoin:round;stroke-miterlimit:10;stroke-opacity:1;stroke-dasharray:none"
             id="path370" /><path
             d="m 1681.67,4969.17 51.66,-215.84 -51.66,2.5 0,-38.33 0,38.33 -51.67,2.5 51.67,210.84"
             style="fill:#ff0000;fill-opacity:1;fill-rule:evenodd;stroke:none"
             id="path372" /><path
             d="m 1681.67,4969.17 51.66,-215.84 -51.66,2.5 0,-38.33 0,38.33 -51.67,2.5 51.67,210.84 0,0"
             style="fill:none;stroke:#ff0000;stroke-width:5;stroke-linecap:butt;stroke-linejoin:round;stroke-miterlimit:10;stroke-opacity:1;stroke-dasharray:none"
             id="path374" /></g></g><g
         id="g376"><g
           id="g378"
           clip-path="url(#clipPath380)"><path
             d="M 1681.67,3455.83 2937.5,2877.5"
             style="fill:none;stroke:#000000;stroke-width:5;stroke-linecap:butt;stroke-linejoin:round;stroke-miterlimit:10;stroke-opacity:1;stroke-dasharray:none"
             id="path384" /><path
             d="M 1681.67,4717.5 2937.5,4139.17"
             style="fill:none;stroke:#000000;stroke-width:5;stroke-linecap:butt;stroke-linejoin:round;stroke-miterlimit:10;stroke-opacity:1;stroke-dasharray:none"
             id="path386" /><path
             d="m 1681.67,3455.83 0,1261.67"
             style="fill:none;stroke:#000000;stroke-width:5;stroke-linecap:butt;stroke-linejoin:round;stroke-miterlimit:10;stroke-opacity:1;stroke-dasharray:none"
             id="path388" /><path
             d="M 1681.67,4086.67 3318.33,4530"
             style="fill:none;stroke:#b2b2b2;stroke-width:5;stroke-linecap:butt;stroke-linejoin:round;stroke-miterlimit:10;stroke-opacity:1;stroke-dasharray:none"
             id="path390" /></g></g></g><path
       sodipodi:type="arc"
       style="color:#000000;fill:none;stroke:#000000;stroke-width:0.93421036;stroke-linecap:butt;stroke-linejoin:miter;stroke-miterlimit:4;stroke-opacity:1;stroke-dasharray:0.93421036, 0.93421036;stroke-dashoffset:0;marker:none;visibility:visible;display:inline;overflow:visible;filter:url(#filter3885);enable-background:accumulate"
       id="path3065"
       sodipodi:cx="199.52066"
       sodipodi:cy="28.403549"
       sodipodi:rx="91.501587"
       sodipodi:ry="87.044495"
       d="m 291.02225,28.403549 a 91.501587,87.044495 0 1 1 -183.00318,0 91.501587,87.044495 0 1 1 183.00318,0 z"
       transform="matrix(0.83407608,0,0,-0.87919448,39.593063,485.70703)" /></g></svg>