<?xml version="1.0" encoding="UTF-8" standalone="no"?>
<!-- Created with Inkscape (http://www.inkscape.org/) -->

<svg
   xmlns:dc="http://purl.org/dc/elements/1.1/"
   xmlns:cc="http://creativecommons.org/ns#"
   xmlns:rdf="http://www.w3.org/1999/02/22-rdf-syntax-ns#"
   xmlns:svg="http://www.w3.org/2000/svg"
   xmlns="http://www.w3.org/2000/svg"
   xmlns:sodipodi="http://sodipodi.sourceforge.net/DTD/sodipodi-0.dtd"
   xmlns:inkscape="http://www.inkscape.org/namespaces/inkscape"
   id="svg2"
   version="1.1"
   inkscape:version="0.47 r22583"
   width="560"
   height="420.10376"
   xml:space="preserve"
   sodipodi:docname="k1_W1_dofs.svg"><metadata
     id="metadata8"><rdf:RDF><cc:Work
         rdf:about=""><dc:format>image/svg+xml</dc:format><dc:type
           rdf:resource="http://purl.org/dc/dcmitype/StillImage" /><dc:title></dc:title></cc:Work></rdf:RDF></metadata><defs
     id="defs6"><inkscape:perspective
       sodipodi:type="inkscape:persp3d"
       inkscape:vp_x="0 : 0.5 : 1"
       inkscape:vp_y="0 : 1000 : 0"
       inkscape:vp_z="1 : 0.5 : 1"
       inkscape:persp3d-origin="0.5 : 0.33333333 : 1"
       id="perspective10" /><clipPath
       clipPathUnits="userSpaceOnUse"
       id="clipPath20"><path
         d="m 810,5640 4480,0 0,-3360.83 -4480,0 0,3360.83 z"
         id="path22" /></clipPath><clipPath
       clipPathUnits="userSpaceOnUse"
       id="clipPath66"><path
         d="m 1391.67,5389.17 3472.5,0 0,-2740 -3472.5,0 0,2740 z"
         id="path68" /></clipPath><clipPath
       clipPathUnits="userSpaceOnUse"
       id="clipPath80"><path
         d="m 810,5640 4480,0 0,-3360.83 -4480,0 0,3360.83 z"
         id="path82" /></clipPath><clipPath
       clipPathUnits="userSpaceOnUse"
       id="clipPath92"><path
         d="m 1391.67,5389.17 3472.5,0 0,-2740 -3472.5,0 0,2740 z"
         id="path94" /></clipPath><clipPath
       clipPathUnits="userSpaceOnUse"
       id="clipPath102"><path
         d="m 810,5640 4480,0 0,-3360.83 -4480,0 0,3360.83 z"
         id="path104" /></clipPath><clipPath
       clipPathUnits="userSpaceOnUse"
       id="clipPath114"><path
         d="m 1391.67,5389.17 3472.5,0 0,-2740 -3472.5,0 0,2740 z"
         id="path116" /></clipPath><clipPath
       clipPathUnits="userSpaceOnUse"
       id="clipPath124"><path
         d="m 810,5640 4480,0 0,-3360.83 -4480,0 0,3360.83 z"
         id="path126" /></clipPath><clipPath
       clipPathUnits="userSpaceOnUse"
       id="clipPath156"><path
         d="m 1391.67,5389.17 3472.5,0 0,-2740 -3472.5,0 0,2740 z"
         id="path158" /></clipPath><clipPath
       clipPathUnits="userSpaceOnUse"
       id="clipPath166"><path
         d="m 810,5640 4480,0 0,-3360.83 -4480,0 0,3360.83 z"
         id="path168" /></clipPath><clipPath
       clipPathUnits="userSpaceOnUse"
       id="clipPath178"><path
         d="m 1391.67,5389.17 3472.5,0 0,-2740 -3472.5,0 0,2740 z"
         id="path180" /></clipPath><clipPath
       clipPathUnits="userSpaceOnUse"
       id="clipPath188"><path
         d="m 810,5640 4480,0 0,-3360.83 -4480,0 0,3360.83 z"
         id="path190" /></clipPath><clipPath
       clipPathUnits="userSpaceOnUse"
       id="clipPath212"><path
         d="m 1391.67,5389.17 3472.5,0 0,-2740 -3472.5,0 0,2740 z"
         id="path214" /></clipPath><clipPath
       clipPathUnits="userSpaceOnUse"
       id="clipPath224"><path
         d="m 810,5640 4480,0 0,-3360.83 -4480,0 0,3360.83 z"
         id="path226" /></clipPath><clipPath
       clipPathUnits="userSpaceOnUse"
       id="clipPath240"><path
         d="m 1391.67,5389.17 3472.5,0 0,-2740 -3472.5,0 0,2740 z"
         id="path242" /></clipPath><clipPath
       clipPathUnits="userSpaceOnUse"
       id="clipPath252"><path
         d="m 810,5640 4480,0 0,-3360.83 -4480,0 0,3360.83 z"
         id="path254" /></clipPath><clipPath
       clipPathUnits="userSpaceOnUse"
       id="clipPath268"><path
         d="m 1391.67,5389.17 3472.5,0 0,-2740 -3472.5,0 0,2740 z"
         id="path270" /></clipPath><clipPath
       clipPathUnits="userSpaceOnUse"
       id="clipPath278"><path
         d="m 810,5640 4480,0 0,-3360.83 -4480,0 0,3360.83 z"
         id="path280" /></clipPath><clipPath
       clipPathUnits="userSpaceOnUse"
       id="clipPath306"><path
         d="m 1391.67,5389.17 3472.5,0 0,-2740 -3472.5,0 0,2740 z"
         id="path308" /></clipPath><clipPath
       clipPathUnits="userSpaceOnUse"
       id="clipPath316"><path
         d="m 810,5640 4480,0 0,-3360.83 -4480,0 0,3360.83 z"
         id="path318" /></clipPath><clipPath
       clipPathUnits="userSpaceOnUse"
       id="clipPath356"><path
         d="m 1391.67,5389.17 3472.5,0 0,-2740 -3472.5,0 0,2740 z"
         id="path358" /></clipPath><clipPath
       clipPathUnits="userSpaceOnUse"
       id="clipPath370"><path
         d="m 810,5640 4480,0 0,-3360.83 -4480,0 0,3360.83 z"
         id="path372" /></clipPath><clipPath
       clipPathUnits="userSpaceOnUse"
       id="clipPath390"><path
         d="m 1391.67,5389.17 3472.5,0 0,-2740 -3472.5,0 0,2740 z"
         id="path392" /></clipPath><clipPath
       clipPathUnits="userSpaceOnUse"
       id="clipPath400"><path
         d="m 810,5640 4480,0 0,-3360.83 -4480,0 0,3360.83 z"
         id="path402" /></clipPath><clipPath
       clipPathUnits="userSpaceOnUse"
       id="clipPath412"><path
         d="m 1391.67,5389.17 3472.5,0 0,-2740 -3472.5,0 0,2740 z"
         id="path414" /></clipPath><clipPath
       clipPathUnits="userSpaceOnUse"
       id="clipPath426"><path
         d="m 810,5640 4480,0 0,-3360.83 -4480,0 0,3360.83 z"
         id="path428" /></clipPath><clipPath
       clipPathUnits="userSpaceOnUse"
       id="clipPath454"><path
         d="m 1391.67,5389.17 3472.5,0 0,-2740 -3472.5,0 0,2740 z"
         id="path456" /></clipPath><clipPath
       clipPathUnits="userSpaceOnUse"
       id="clipPath468"><path
         d="m 810,5640 4480,0 0,-3360.83 -4480,0 0,3360.83 z"
         id="path470" /></clipPath><clipPath
       clipPathUnits="userSpaceOnUse"
       id="clipPath492"><path
         d="m 1391.67,5389.17 3472.5,0 0,-2740 -3472.5,0 0,2740 z"
         id="path494" /></clipPath><clipPath
       clipPathUnits="userSpaceOnUse"
       id="clipPath508"><path
         d="m 810,5640 4480,0 0,-3360.83 -4480,0 0,3360.83 z"
         id="path510" /></clipPath><filter
       inkscape:collect="always"
       id="filter3885"><feGaussianBlur
         inkscape:collect="always"
         stdDeviation="0.44622652"
         id="feGaussianBlur3887" /></filter></defs><sodipodi:namedview
     pagecolor="#ffffff"
     bordercolor="#666666"
     borderopacity="1"
     objecttolerance="10"
     gridtolerance="10"
     guidetolerance="10"
     inkscape:pageopacity="0"
     inkscape:pageshadow="2"
     inkscape:window-width="1875"
     inkscape:window-height="1062"
     id="namedview4"
     showgrid="false"
     inkscape:zoom="1.9070707"
     inkscape:cx="187.38877"
     inkscape:cy="228.53231"
     inkscape:window-x="0"
     inkscape:window-y="25"
     inkscape:window-maximized="0"
     inkscape:current-layer="g12" /><g
     id="g12"
     inkscape:groupmode="layer"
     inkscape:label="ink_ext_XXXXXX"
     transform="matrix(1.25,0,0,-1.25,-101.25,705)"><g
       id="g14"
       transform="scale(0.1,0.1)"><g
         id="g16"><g
           id="g18"
           clip-path="url(#clipPath20)"><path
             d="m 810,2279.17 4480,0 0,3360.83 -4480,0 0,-3360.83 z"
             style="fill:#ffffff;fill-opacity:1;fill-rule:nonzero;stroke:none"
             id="path24" /><path
             d="m 4901.67,4040.83 -221.67,3.34 15.83,-59.17 -121.66,-33.33 0,0 121.66,33.33 15.84,-59.17 190,115"
             style="fill:#0000ff;fill-opacity:1;fill-rule:evenodd;stroke:none"
             id="path26" /><path
             d="m 4901.67,4040.83 -221.67,3.34 15.83,-59.17 -121.66,-33.33 0,0 121.66,33.33 15.84,-59.17 190,115 0,0"
             style="fill:none;stroke:#0000ff;stroke-width:5;stroke-linecap:butt;stroke-linejoin:round;stroke-miterlimit:10;stroke-opacity:1;stroke-dasharray:none"
             id="path28" /><path
             d="M 4901.67,4671.67 4680,4675 l 15.83,-59.17 -121.66,-33.33 0,0 121.66,33.33 15.84,-59.16 190,115"
             style="fill:#0000ff;fill-opacity:1;fill-rule:evenodd;stroke:none"
             id="path30" /><path
             d="M 4901.67,4671.67 4680,4675 l 15.83,-59.17 -121.66,-33.33 0,0 121.66,33.33 15.84,-59.16 190,115 0,0"
             style="fill:none;stroke:#0000ff;stroke-width:5;stroke-linecap:butt;stroke-linejoin:round;stroke-miterlimit:10;stroke-opacity:1;stroke-dasharray:none"
             id="path32" /><path
             d="m 4901.67,3410 -172.5,16.67 18.33,-58.34 -173.33,-47.5 0,0 173.33,47.5 18.33,-58.33 135.84,100"
             style="fill:#0000ff;fill-opacity:1;fill-rule:evenodd;stroke:none"
             id="path34" /><path
             d="m 4901.67,3410 -172.5,16.67 18.33,-58.34 -173.33,-47.5 0,0 173.33,47.5 18.33,-58.33 135.84,100 0,0"
             style="fill:none;stroke:#0000ff;stroke-width:5;stroke-linecap:butt;stroke-linejoin:round;stroke-miterlimit:10;stroke-opacity:1;stroke-dasharray:none"
             id="path36" /><path
             d="m 4323.33,4698.34 219.17,-33.34 -25.83,-55.83 57.5,-26.67 0,0 -57.5,26.67 -25,-55.84 -168.34,145.01"
             style="fill:#00ff00;fill-opacity:1;fill-rule:evenodd;stroke:none"
             id="path38" /><path
             d="m 4323.33,4698.34 219.17,-33.34 -25.83,-55.83 57.5,-26.67 0,0 -57.5,26.67 -25,-55.84 -168.34,145.01 0,0"
             style="fill:none;stroke:#00ff00;stroke-width:5;stroke-linecap:butt;stroke-linejoin:round;stroke-miterlimit:10;stroke-opacity:1;stroke-dasharray:none"
             id="path40" /><path
             d="m 4574.17,4835 61.66,-213.33 -61.66,0 0,-39.17 0,39.17 -60.84,0 60.84,213.33"
             style="fill:#ff0000;fill-opacity:1;fill-rule:evenodd;stroke:none"
             id="path42" /><path
             d="m 4574.17,4835 61.66,-213.33 -61.66,0 0,-39.17 0,39.17 -60.84,0 60.84,213.33 0,0"
             style="fill:none;stroke:#ff0000;stroke-width:5;stroke-linecap:butt;stroke-linejoin:round;stroke-miterlimit:10;stroke-opacity:1;stroke-dasharray:none"
             id="path44" /><path
             d="m 4323.33,3436.67 219.17,-33.34 -25.83,-55.83 57.5,-26.67 0,0 -57.5,26.67 -25,-55.83 -168.34,145"
             style="fill:#00ff00;fill-opacity:1;fill-rule:evenodd;stroke:none"
             id="path46" /><path
             d="m 4323.33,3436.67 219.17,-33.34 -25.83,-55.83 57.5,-26.67 0,0 -57.5,26.67 -25,-55.83 -168.34,145 0,0"
             style="fill:none;stroke:#00ff00;stroke-width:5;stroke-linecap:butt;stroke-linejoin:round;stroke-miterlimit:10;stroke-opacity:1;stroke-dasharray:none"
             id="path48" /><path
             d="m 4574.17,3573.33 61.66,-213.33 -61.66,0 0,-39.17 0,39.17 -60.84,0 60.84,213.33"
             style="fill:#ff0000;fill-opacity:1;fill-rule:evenodd;stroke:none"
             id="path50" /><path
             d="m 4574.17,3573.33 61.66,-213.33 -61.66,0 0,-39.17 0,39.17 -60.84,0 60.84,213.33 0,0"
             style="fill:none;stroke:#ff0000;stroke-width:5;stroke-linecap:butt;stroke-linejoin:round;stroke-miterlimit:10;stroke-opacity:1;stroke-dasharray:none"
             id="path52" /><path
             d="m 3946.67,3862.5 60.83,-213.33 -60.83,0 0,-39.17 0,39.17 -61.67,0 61.67,213.33"
             style="fill:#ff0000;fill-opacity:1;fill-rule:evenodd;stroke:none"
             id="path54" /><path
             d="m 3946.67,3862.5 60.83,-213.33 -60.83,0 0,-39.17 0,39.17 -61.67,0 61.67,213.33 0,0"
             style="fill:none;stroke:#ff0000;stroke-width:5;stroke-linecap:butt;stroke-linejoin:round;stroke-miterlimit:10;stroke-opacity:1;stroke-dasharray:none"
             id="path56" /><path
             d="m 4274.17,3699.17 -222.5,3.33 15.83,-59.17 -120.83,-33.33 0,0 120.83,33.33 16.67,-59.16 190,115"
             style="fill:#0000ff;fill-opacity:1;fill-rule:evenodd;stroke:none"
             id="path58" /><path
             d="m 4274.17,3699.17 -222.5,3.33 15.83,-59.17 -120.83,-33.33 0,0 120.83,33.33 16.67,-59.16 190,115 0,0"
             style="fill:none;stroke:#0000ff;stroke-width:5;stroke-linecap:butt;stroke-linejoin:round;stroke-miterlimit:10;stroke-opacity:1;stroke-dasharray:none"
             id="path60" /></g></g><g
         id="g62"><g
           id="g64"
           clip-path="url(#clipPath66)"><path
             d="M 4574.17,3320.83 3318.33,3899.17"
             style="fill:none;stroke:#000000;stroke-width:5;stroke-linecap:butt;stroke-linejoin:round;stroke-miterlimit:10;stroke-opacity:1;stroke-dasharray:none"
             id="path70" /><path
             d="M 4574.17,4582.5 3318.33,5160.84"
             style="fill:none;stroke:#000000;stroke-width:5;stroke-linecap:butt;stroke-linejoin:round;stroke-miterlimit:10;stroke-opacity:1;stroke-dasharray:none"
             id="path72" /><path
             d="m 4574.17,3320.83 0,1261.67"
             style="fill:none;stroke:#000000;stroke-width:5;stroke-linecap:butt;stroke-linejoin:round;stroke-miterlimit:10;stroke-opacity:1;stroke-dasharray:none"
             id="path74" /></g></g><g
         id="g76"><g
           id="g78"
           clip-path="url(#clipPath80)"><path
             d="m 4274.17,4329.17 -222.5,3.33 15.83,-58.33 -120.83,-33.34 0,0 120.83,33.34 16.67,-59.17 190,114.17"
             style="fill:#0000ff;fill-opacity:1;fill-rule:evenodd;stroke:none"
             id="path84" /><path
             d="m 4274.17,4329.17 -222.5,3.33 15.83,-58.33 -120.83,-33.34 0,0 120.83,33.34 16.67,-59.17 190,114.17 0,0"
             style="fill:none;stroke:#0000ff;stroke-width:5;stroke-linecap:butt;stroke-linejoin:round;stroke-miterlimit:10;stroke-opacity:1;stroke-dasharray:none"
             id="path86" /></g></g><g
         id="g88"><g
           id="g90"
           clip-path="url(#clipPath92)"><path
             d="m 3946.67,3610 0,1261.67"
             style="fill:none;stroke:#b2b2b2;stroke-width:5;stroke-linecap:butt;stroke-linejoin:round;stroke-miterlimit:10;stroke-opacity:1;stroke-dasharray:none"
             id="path96" /></g></g><g
         id="g98"><g
           id="g100"
           clip-path="url(#clipPath102)"><path
             d="m 4323.33,4067.5 219.17,-33.33 -25.83,-55.84 57.5,-26.66 0,0 -57.5,26.66 -25,-55.83 -168.34,145"
             style="fill:#00ff00;fill-opacity:1;fill-rule:evenodd;stroke:none"
             id="path106" /><path
             d="m 4323.33,4067.5 219.17,-33.33 -25.83,-55.84 57.5,-26.66 0,0 -57.5,26.66 -25,-55.83 -168.34,145 0,0"
             style="fill:none;stroke:#00ff00;stroke-width:5;stroke-linecap:butt;stroke-linejoin:round;stroke-miterlimit:10;stroke-opacity:1;stroke-dasharray:none"
             id="path108" /></g></g><g
         id="g110"><g
           id="g112"
           clip-path="url(#clipPath114)"><path
             d="M 4574.17,3951.67 3318.33,4530"
             style="fill:none;stroke:#b2b2b2;stroke-width:5;stroke-linecap:butt;stroke-linejoin:round;stroke-miterlimit:10;stroke-opacity:1;stroke-dasharray:none"
             id="path118" /></g></g><g
         id="g120"><g
           id="g122"
           clip-path="url(#clipPath124)"><path
             d="m 4274.17,4960 -222.5,3.33 15.83,-59.16 -120.83,-32.5 0,0 120.83,32.5 16.67,-58.34 190,114.17"
             style="fill:#0000ff;fill-opacity:1;fill-rule:evenodd;stroke:none"
             id="path128" /><path
             d="m 4274.17,4960 -222.5,3.33 15.83,-59.16 -120.83,-32.5 0,0 120.83,32.5 16.67,-58.34 190,114.17 0,0"
             style="fill:none;stroke:#0000ff;stroke-width:5;stroke-linecap:butt;stroke-linejoin:round;stroke-miterlimit:10;stroke-opacity:1;stroke-dasharray:none"
             id="path130" /><path
             d="m 3946.67,5124.17 60.83,-213.34 -60.83,0 0,-39.16 0,39.16 -61.67,0 61.67,213.34"
             style="fill:#ff0000;fill-opacity:1;fill-rule:evenodd;stroke:none"
             id="path132" /><path
             d="m 3946.67,5124.17 60.83,-213.34 -60.83,0 0,-39.16 0,39.16 -61.67,0 61.67,213.34 0,0"
             style="fill:none;stroke:#ff0000;stroke-width:5;stroke-linecap:butt;stroke-linejoin:round;stroke-miterlimit:10;stroke-opacity:1;stroke-dasharray:none"
             id="path134" /><path
             d="m 3505,3215 210,-35.83 -16.67,-53.34 57.5,-26.66 0,0 -57.5,26.66 -16.66,-53.33 L 3505,3215"
             style="fill:#00ff00;fill-opacity:1;fill-rule:evenodd;stroke:none"
             id="path136" /><path
             d="m 3505,3215 210,-35.83 -16.67,-53.34 57.5,-26.66 0,0 -57.5,26.66 -16.66,-53.33 -176.67,142.5 0,0"
             style="fill:none;stroke:#00ff00;stroke-width:5;stroke-linecap:butt;stroke-linejoin:round;stroke-miterlimit:10;stroke-opacity:1;stroke-dasharray:none"
             id="path138" /><path
             d="m 3755.83,3351.67 51.67,-215.84 -51.67,2.5 0,-39.16 0,39.16 -51.66,2.5 51.66,210.84"
             style="fill:#ff0000;fill-opacity:1;fill-rule:evenodd;stroke:none"
             id="path140" /><path
             d="m 3755.83,3351.67 51.67,-215.84 -51.67,2.5 0,-39.16 0,39.16 -51.66,2.5 51.66,210.84 0,0"
             style="fill:none;stroke:#ff0000;stroke-width:5;stroke-linecap:butt;stroke-linejoin:round;stroke-miterlimit:10;stroke-opacity:1;stroke-dasharray:none"
             id="path142" /><path
             d="m 3505,4476.67 210,-35.84 -16.67,-53.33 57.5,-26.67 0,0 -57.5,26.67 -16.66,-53.33 -176.67,142.5"
             style="fill:#00ff00;fill-opacity:1;fill-rule:evenodd;stroke:none"
             id="path144" /><path
             d="m 3505,4476.67 210,-35.84 -16.67,-53.33 57.5,-26.67 0,0 -57.5,26.67 -16.66,-53.33 -176.67,142.5 0,0"
             style="fill:none;stroke:#00ff00;stroke-width:5;stroke-linecap:butt;stroke-linejoin:round;stroke-miterlimit:10;stroke-opacity:1;stroke-dasharray:none"
             id="path146" /><path
             d="m 3755.83,4613.34 51.67,-215.84 -51.67,2.5 0,-39.17 0,39.17 -51.66,2.5 51.66,210.84"
             style="fill:#ff0000;fill-opacity:1;fill-rule:evenodd;stroke:none"
             id="path148" /><path
             d="m 3755.83,4613.34 51.67,-215.84 -51.67,2.5 0,-39.17 0,39.17 -51.66,2.5 51.66,210.84 0,0"
             style="fill:none;stroke:#ff0000;stroke-width:5;stroke-linecap:butt;stroke-linejoin:round;stroke-miterlimit:10;stroke-opacity:1;stroke-dasharray:none"
             id="path150" /></g></g><g
         id="g152"><g
           id="g154"
           clip-path="url(#clipPath156)"><path
             d="m 3755.83,3099.17 0,1261.67"
             style="fill:none;stroke:#b2b2b2;stroke-width:5;stroke-linecap:butt;stroke-linejoin:round;stroke-miterlimit:10;stroke-opacity:1;stroke-dasharray:none"
             id="path160" /></g></g><g
         id="g162"><g
           id="g164"
           clip-path="url(#clipPath166)"><path
             d="m 3127.5,3640.83 51.67,-215.83 -51.67,2.5 0,-39.17 0,39.17 -50.83,2.5 50.83,210.83"
             style="fill:#ff0000;fill-opacity:1;fill-rule:evenodd;stroke:none"
             id="path170" /><path
             d="m 3127.5,3640.83 51.67,-215.83 -51.67,2.5 0,-39.17 0,39.17 -50.83,2.5 50.83,210.83 0,0"
             style="fill:none;stroke:#ff0000;stroke-width:5;stroke-linecap:butt;stroke-linejoin:round;stroke-miterlimit:10;stroke-opacity:1;stroke-dasharray:none"
             id="path172" /></g></g><g
         id="g174"><g
           id="g176"
           clip-path="url(#clipPath178)"><path
             d="M 3755.83,3099.17 2500,3677.5"
             style="fill:none;stroke:#b2b2b2;stroke-width:5;stroke-linecap:butt;stroke-linejoin:round;stroke-miterlimit:10;stroke-opacity:1;stroke-dasharray:none"
             id="path182" /></g></g><g
         id="g184"><g
           id="g186"
           clip-path="url(#clipPath188)"><path
             d="m 3067.5,4645 219.17,-33.33 -25.84,-55.84 57.5,-25.83 0,0 -57.5,25.83 -25.83,-55 -167.5,144.17"
             style="fill:#00ff00;fill-opacity:1;fill-rule:evenodd;stroke:none"
             id="path192" /><path
             d="m 3067.5,4645 219.17,-33.33 -25.84,-55.84 57.5,-25.83 0,0 -57.5,25.83 -25.83,-55 -167.5,144.17 0,0"
             style="fill:none;stroke:#00ff00;stroke-width:5;stroke-linecap:butt;stroke-linejoin:round;stroke-miterlimit:10;stroke-opacity:1;stroke-dasharray:none"
             id="path194" /><path
             d="m 3067.5,4014.17 219.17,-33.34 -25.84,-55 57.5,-26.66 0,0 -57.5,26.66 L 3235,3870 3067.5,4014.17"
             style="fill:#00ff00;fill-opacity:1;fill-rule:evenodd;stroke:none"
             id="path196" /><path
             d="m 3067.5,4014.17 219.17,-33.34 -25.84,-55 57.5,-26.66 0,0 -57.5,26.66 -25.83,-55.83 -167.5,144.17 0,0"
             style="fill:none;stroke:#00ff00;stroke-width:5;stroke-linecap:butt;stroke-linejoin:round;stroke-miterlimit:10;stroke-opacity:1;stroke-dasharray:none"
             id="path198" /><path
             d="m 3318.33,4151.67 60.84,-213.34 -60.84,0 0,-39.16 0,39.16 -60.83,0 60.83,213.34"
             style="fill:#ff0000;fill-opacity:1;fill-rule:evenodd;stroke:none"
             id="path200" /><path
             d="m 3318.33,4151.67 60.84,-213.34 -60.84,0 0,-39.16 0,39.16 -60.83,0 60.83,213.34 0,0"
             style="fill:none;stroke:#ff0000;stroke-width:5;stroke-linecap:butt;stroke-linejoin:round;stroke-miterlimit:10;stroke-opacity:1;stroke-dasharray:none"
             id="path202" /><path
             d="m 3645.83,4618.34 -221.66,3.33 15.83,-59.17 -121.67,-32.5 0,0 121.67,32.5 15.83,-59.17 190,115.01"
             style="fill:#0000ff;fill-opacity:1;fill-rule:evenodd;stroke:none"
             id="path204" /><path
             d="m 3645.83,4618.34 -221.66,3.33 15.83,-59.17 -121.67,-32.5 0,0 121.67,32.5 15.83,-59.17 190,115.01 0,0"
             style="fill:none;stroke:#0000ff;stroke-width:5;stroke-linecap:butt;stroke-linejoin:round;stroke-miterlimit:10;stroke-opacity:1;stroke-dasharray:none"
             id="path206" /></g></g><g
         id="g208"><g
           id="g210"
           clip-path="url(#clipPath212)"><path
             d="m 3318.33,3899.17 0,1261.67"
             style="fill:none;stroke:#000000;stroke-width:5;stroke-linecap:butt;stroke-linejoin:round;stroke-miterlimit:10;stroke-opacity:1;stroke-dasharray:none"
             id="path216" /><path
             d="M 3755.83,4360.84 2500,4939.17"
             style="fill:none;stroke:#b2b2b2;stroke-width:5;stroke-linecap:butt;stroke-linejoin:round;stroke-miterlimit:10;stroke-opacity:1;stroke-dasharray:none"
             id="path218" /></g></g><g
         id="g220"><g
           id="g222"
           clip-path="url(#clipPath224)"><path
             d="m 2009.17,3544.17 -173.34,16.66 18.34,-58.33 -172.5,-46.67 0,0 172.5,46.67 18.33,-58.33 136.67,100"
             style="fill:#0000ff;fill-opacity:1;fill-rule:evenodd;stroke:none"
             id="path228" /><path
             d="m 2009.17,3544.17 -173.34,16.66 18.34,-58.33 -172.5,-46.67 0,0 172.5,46.67 18.33,-58.33 136.67,100 0,0"
             style="fill:none;stroke:#0000ff;stroke-width:5;stroke-linecap:butt;stroke-linejoin:round;stroke-miterlimit:10;stroke-opacity:1;stroke-dasharray:none"
             id="path230" /><path
             d="m 2248.33,3792.5 220,-33.33 -25.83,-55.84 57.5,-25.83 0,0 -57.5,25.83 -25.83,-55 -168.34,144.17"
             style="fill:#00ff00;fill-opacity:1;fill-rule:evenodd;stroke:none"
             id="path232" /><path
             d="m 2248.33,3792.5 220,-33.33 -25.83,-55.84 57.5,-25.83 0,0 -57.5,25.83 -25.83,-55 -168.34,144.17 0,0"
             style="fill:none;stroke:#00ff00;stroke-width:5;stroke-linecap:butt;stroke-linejoin:round;stroke-miterlimit:10;stroke-opacity:1;stroke-dasharray:none"
             id="path234" /></g></g><g
         id="g236"><g
           id="g238"
           clip-path="url(#clipPath240)"><path
             d="M 3318.33,3899.17 1681.67,3455.83"
             style="fill:none;stroke:#000000;stroke-width:5;stroke-linecap:butt;stroke-linejoin:round;stroke-miterlimit:10;stroke-opacity:1;stroke-dasharray:none"
             id="path244" /><path
             d="m 3127.5,3388.33 0,1261.67"
             style="fill:none;stroke:#b2b2b2;stroke-width:5;stroke-linecap:butt;stroke-linejoin:round;stroke-miterlimit:10;stroke-opacity:1;stroke-dasharray:none"
             id="path246" /></g></g><g
         id="g248"><g
           id="g250"
           clip-path="url(#clipPath252)"><path
             d="m 3645.83,3987.5 -221.66,3.33 15.83,-59.16 -121.67,-32.5 0,0 121.67,32.5 15.83,-59.17 190,115"
             style="fill:#0000ff;fill-opacity:1;fill-rule:evenodd;stroke:none"
             id="path256" /><path
             d="m 3645.83,3987.5 -221.66,3.33 15.83,-59.16 -121.67,-32.5 0,0 121.67,32.5 15.83,-59.17 190,115 0,0"
             style="fill:none;stroke:#0000ff;stroke-width:5;stroke-linecap:butt;stroke-linejoin:round;stroke-miterlimit:10;stroke-opacity:1;stroke-dasharray:none"
             id="path258" /><path
             d="m 3505,3845.83 210,-35.83 -16.67,-53.33 57.5,-26.67 0,0 -57.5,26.67 -16.66,-53.34 -176.67,142.5"
             style="fill:#00ff00;fill-opacity:1;fill-rule:evenodd;stroke:none"
             id="path260" /><path
             d="m 3505,3845.83 210,-35.83 -16.67,-53.33 57.5,-26.67 0,0 -57.5,26.67 -16.66,-53.34 -176.67,142.5 0,0"
             style="fill:none;stroke:#00ff00;stroke-width:5;stroke-linecap:butt;stroke-linejoin:round;stroke-miterlimit:10;stroke-opacity:1;stroke-dasharray:none"
             id="path262" /></g></g><g
         id="g264"><g
           id="g266"
           clip-path="url(#clipPath268)"><path
             d="M 3755.83,3730 2500,4308.34"
             style="fill:none;stroke:#b2b2b2;stroke-width:5;stroke-linecap:butt;stroke-linejoin:round;stroke-miterlimit:10;stroke-opacity:1;stroke-dasharray:none"
             id="path272" /></g></g><g
         id="g274"><g
           id="g276"
           clip-path="url(#clipPath278)"><path
             d="m 3645.83,5249.17 -221.66,3.33 15.83,-59.17 -121.67,-32.5 0,0 121.67,32.5 15.83,-59.16 190,115"
             style="fill:#0000ff;fill-opacity:1;fill-rule:evenodd;stroke:none"
             id="path282" /><path
             d="m 3645.83,5249.17 -221.66,3.33 15.83,-59.17 -121.67,-32.5 0,0 121.67,32.5 15.83,-59.16 190,115 0,0"
             style="fill:none;stroke:#0000ff;stroke-width:5;stroke-linecap:butt;stroke-linejoin:round;stroke-miterlimit:10;stroke-opacity:1;stroke-dasharray:none"
             id="path284" /><path
             d="m 3067.5,5275.84 219.17,-33.34 -25.84,-55.83 57.5,-25.84 0,0 -57.5,25.84 -25.83,-55 -167.5,144.17"
             style="fill:#00ff00;fill-opacity:1;fill-rule:evenodd;stroke:none"
             id="path286" /><path
             d="m 3067.5,5275.84 219.17,-33.34 -25.84,-55.83 57.5,-25.84 0,0 -57.5,25.84 -25.83,-55 -167.5,144.17 0,0"
             style="fill:none;stroke:#00ff00;stroke-width:5;stroke-linecap:butt;stroke-linejoin:round;stroke-miterlimit:10;stroke-opacity:1;stroke-dasharray:none"
             id="path288" /><path
             d="m 3318.33,5412.5 60.84,-213.33 -60.84,0 0,-38.34 0,38.34 -60.83,0 60.83,213.33"
             style="fill:#ff0000;fill-opacity:1;fill-rule:evenodd;stroke:none"
             id="path290" /><path
             d="m 3318.33,5412.5 60.84,-213.33 -60.84,0 0,-38.34 0,38.34 -60.83,0 60.83,213.33 0,0"
             style="fill:none;stroke:#ff0000;stroke-width:5;stroke-linecap:butt;stroke-linejoin:round;stroke-miterlimit:10;stroke-opacity:1;stroke-dasharray:none"
             id="path292" /><path
             d="m 2009.17,4805.84 -173.34,16.66 18.34,-58.33 -172.5,-46.67 0,0 172.5,46.67 18.33,-58.34 136.67,100.01"
             style="fill:#0000ff;fill-opacity:1;fill-rule:evenodd;stroke:none"
             id="path294" /><path
             d="m 2009.17,4805.84 -173.34,16.66 18.34,-58.33 -172.5,-46.67 0,0 172.5,46.67 18.33,-58.34 136.67,100.01 0,0"
             style="fill:none;stroke:#0000ff;stroke-width:5;stroke-linecap:butt;stroke-linejoin:round;stroke-miterlimit:10;stroke-opacity:1;stroke-dasharray:none"
             id="path296" /><path
             d="m 2248.33,5054.17 220,-33.34 -25.83,-55.83 57.5,-25.83 0,0 -57.5,25.83 -25.83,-55 -168.34,144.17"
             style="fill:#00ff00;fill-opacity:1;fill-rule:evenodd;stroke:none"
             id="path298" /><path
             d="m 2248.33,5054.17 220,-33.34 -25.83,-55.83 57.5,-25.83 0,0 -57.5,25.83 -25.83,-55 -168.34,144.17 0,0"
             style="fill:none;stroke:#00ff00;stroke-width:5;stroke-linecap:butt;stroke-linejoin:round;stroke-miterlimit:10;stroke-opacity:1;stroke-dasharray:none"
             id="path300" /></g></g><g
         id="g302"><g
           id="g304"
           clip-path="url(#clipPath306)"><path
             d="M 3318.33,5160.84 1681.67,4717.5"
             style="fill:none;stroke:#000000;stroke-width:5;stroke-linecap:butt;stroke-linejoin:round;stroke-miterlimit:10;stroke-opacity:1;stroke-dasharray:none"
             id="path310" /></g></g><g
         id="g312"><g
           id="g314"
           clip-path="url(#clipPath316)"><path
             d="m 3265,3597.5 -166.67,0 12.5,-41.67 -173.33,-47.5 0,0 173.33,47.5 11.67,-42.5 142.5,84.17"
             style="fill:#0000ff;fill-opacity:1;fill-rule:evenodd;stroke:none"
             id="path320" /><path
             d="m 3265,3597.5 -166.67,0 12.5,-41.67 -173.33,-47.5 0,0 173.33,47.5 11.67,-42.5 142.5,84.17 0,0"
             style="fill:none;stroke:#0000ff;stroke-width:5;stroke-linecap:butt;stroke-linejoin:round;stroke-miterlimit:10;stroke-opacity:1;stroke-dasharray:none"
             id="path322" /><path
             d="m 3265,4228.34 -166.67,13.33 12.5,-55.84 -173.33,-46.66 0,0 173.33,46.66 11.67,-55 142.5,97.51"
             style="fill:#0000ff;fill-opacity:1;fill-rule:evenodd;stroke:none"
             id="path324" /><path
             d="m 3265,4228.34 -166.67,13.33 12.5,-55.84 -173.33,-46.66 0,0 173.33,46.66 11.67,-55 142.5,97.51 0,0"
             style="fill:none;stroke:#0000ff;stroke-width:5;stroke-linecap:butt;stroke-linejoin:round;stroke-miterlimit:10;stroke-opacity:1;stroke-dasharray:none"
             id="path326" /><path
             d="m 3265,2966.67 -110.83,1.66 7.5,-30 -224.17,-60.83 0,0 224.17,60.83 8.33,-29.16 95,57.5"
             style="fill:#0000ff;fill-opacity:1;fill-rule:evenodd;stroke:none"
             id="path328" /><path
             d="m 3265,2966.67 -110.83,1.66 7.5,-30 -224.17,-60.83 0,0 224.17,60.83 8.33,-29.16 95,57.5 0,0"
             style="fill:none;stroke:#0000ff;stroke-width:5;stroke-linecap:butt;stroke-linejoin:round;stroke-miterlimit:10;stroke-opacity:1;stroke-dasharray:none"
             id="path330" /><path
             d="m 3127.5,4902.5 61.67,-213.33 -61.67,0 0,-39.17 0,39.17 -60.83,0 60.83,213.33"
             style="fill:#ff0000;fill-opacity:1;fill-rule:evenodd;stroke:none"
             id="path332" /><path
             d="m 3127.5,4902.5 61.67,-213.33 -61.67,0 0,-39.17 0,39.17 -60.83,0 60.83,213.33 0,0"
             style="fill:none;stroke:#ff0000;stroke-width:5;stroke-linecap:butt;stroke-linejoin:round;stroke-miterlimit:10;stroke-opacity:1;stroke-dasharray:none"
             id="path334" /><path
             d="m 2937.5,4391.67 45.83,-149.17 -45.83,0 0,-103.33 0,103.33 -45.83,0 45.83,149.17"
             style="fill:#ff0000;fill-opacity:1;fill-rule:evenodd;stroke:none"
             id="path336" /><path
             d="m 2937.5,4391.67 45.83,-149.17 -45.83,0 0,-103.33 0,103.33 -45.83,0 45.83,149.17 0,0"
             style="fill:none;stroke:#ff0000;stroke-width:5;stroke-linecap:butt;stroke-linejoin:round;stroke-miterlimit:10;stroke-opacity:1;stroke-dasharray:none"
             id="path338" /><path
             d="m 2937.5,3130 45.83,-149.17 -45.83,0 0,-103.33 0,103.33 -45.83,0 45.83,149.17"
             style="fill:#ff0000;fill-opacity:1;fill-rule:evenodd;stroke:none"
             id="path340" /><path
             d="m 2937.5,3130 45.83,-149.17 -45.83,0 0,-103.33 0,103.33 -45.83,0 45.83,149.17 0,0"
             style="fill:none;stroke:#ff0000;stroke-width:5;stroke-linecap:butt;stroke-linejoin:round;stroke-miterlimit:10;stroke-opacity:1;stroke-dasharray:none"
             id="path342" /><path
             d="m 2686.67,3624.17 164.16,-27.5 -19.16,-39.17 105.83,-49.17 0,0 -105.83,49.17 -19.17,-40 -125.83,106.67"
             style="fill:#00ff00;fill-opacity:1;fill-rule:evenodd;stroke:none"
             id="path344" /><path
             d="m 2686.67,3624.17 164.16,-27.5 -19.16,-39.17 105.83,-49.17 0,0 -105.83,49.17 -19.17,-40 -125.83,106.67 0,0"
             style="fill:none;stroke:#00ff00;stroke-width:5;stroke-linecap:butt;stroke-linejoin:round;stroke-miterlimit:10;stroke-opacity:1;stroke-dasharray:none"
             id="path346" /><path
             d="m 2686.67,2993.33 155,-29.16 -10,-37.5 105.83,-49.17 0,0 -105.83,49.17 -10.84,-37.5 -134.16,104.16"
             style="fill:#00ff00;fill-opacity:1;fill-rule:evenodd;stroke:none"
             id="path348" /><path
             d="m 2686.67,2993.33 155,-29.16 -10,-37.5 105.83,-49.17 0,0 -105.83,49.17 -10.84,-37.5 -134.16,104.16 0,0"
             style="fill:none;stroke:#00ff00;stroke-width:5;stroke-linecap:butt;stroke-linejoin:round;stroke-miterlimit:10;stroke-opacity:1;stroke-dasharray:none"
             id="path350" /></g></g><g
         id="g352"><g
           id="g354"
           clip-path="url(#clipPath356)"><path
             d="m 2937.5,2877.5 1636.67,443.33"
             style="fill:none;stroke:#000000;stroke-width:5;stroke-linecap:butt;stroke-linejoin:round;stroke-miterlimit:10;stroke-opacity:1;stroke-dasharray:none"
             id="path360" /><path
             d="M 2937.5,4139.17 4574.17,4582.5"
             style="fill:none;stroke:#000000;stroke-width:5;stroke-linecap:butt;stroke-linejoin:round;stroke-miterlimit:10;stroke-opacity:1;stroke-dasharray:none"
             id="path362" /><path
             d="m 2937.5,2877.5 0,1261.67"
             style="fill:none;stroke:#000000;stroke-width:5;stroke-linecap:butt;stroke-linejoin:round;stroke-miterlimit:10;stroke-opacity:1;stroke-dasharray:none"
             id="path364" /></g></g><g
         id="g366"><g
           id="g368"
           clip-path="url(#clipPath370)"><path
             d="m 2309.17,3419.17 45.83,-213.34 -45.83,0 0,-39.16 0,39.16 -45.84,0 45.84,213.34"
             style="fill:#ff0000;fill-opacity:1;fill-rule:evenodd;stroke:none"
             id="path374" /><path
             d="m 2309.17,3419.17 45.83,-213.34 -45.83,0 0,-39.16 0,39.16 -45.84,0 45.84,213.34 0,0"
             style="fill:none;stroke:#ff0000;stroke-width:5;stroke-linecap:butt;stroke-linejoin:round;stroke-miterlimit:10;stroke-opacity:1;stroke-dasharray:none"
             id="path376" /><path
             d="m 2248.33,4423.34 220,-33.34 -25.83,-55.83 57.5,-25.84 0,0 -57.5,25.84 -25.83,-55 -168.34,144.17"
             style="fill:#00ff00;fill-opacity:1;fill-rule:evenodd;stroke:none"
             id="path378" /><path
             d="m 2248.33,4423.34 220,-33.34 -25.83,-55.83 57.5,-25.84 0,0 -57.5,25.84 -25.83,-55 -168.34,144.17 0,0"
             style="fill:none;stroke:#00ff00;stroke-width:5;stroke-linecap:butt;stroke-linejoin:round;stroke-miterlimit:10;stroke-opacity:1;stroke-dasharray:none"
             id="path380" /><path
             d="m 2500,3930 60.83,-214.17 -60.83,0 0,-38.33 0,38.33 -61.67,0 L 2500,3930"
             style="fill:#ff0000;fill-opacity:1;fill-rule:evenodd;stroke:none"
             id="path382" /><path
             d="m 2500,3930 60.83,-214.17 -60.83,0 0,-38.33 0,38.33 -61.67,0 61.67,214.17 0,0"
             style="fill:none;stroke:#ff0000;stroke-width:5;stroke-linecap:butt;stroke-linejoin:round;stroke-miterlimit:10;stroke-opacity:1;stroke-dasharray:none"
             id="path384" /></g></g><g
         id="g386"><g
           id="g388"
           clip-path="url(#clipPath390)"><path
             d="m 2500,3677.5 0,1261.67"
             style="fill:none;stroke:#b2b2b2;stroke-width:5;stroke-linecap:butt;stroke-linejoin:round;stroke-miterlimit:10;stroke-opacity:1;stroke-dasharray:none"
             id="path394" /></g></g><g
         id="g396"><g
           id="g398"
           clip-path="url(#clipPath400)"><path
             d="m 2636.67,3885.83 -172.5,16.67 18.33,-58.33 -173.33,-46.67 0,0 173.33,46.67 18.33,-58.34 135.84,100"
             style="fill:#0000ff;fill-opacity:1;fill-rule:evenodd;stroke:none"
             id="path404" /><path
             d="m 2636.67,3885.83 -172.5,16.67 18.33,-58.33 -173.33,-46.67 0,0 173.33,46.67 18.33,-58.34 135.84,100 0,0"
             style="fill:none;stroke:#0000ff;stroke-width:5;stroke-linecap:butt;stroke-linejoin:round;stroke-miterlimit:10;stroke-opacity:1;stroke-dasharray:none"
             id="path406" /></g></g><g
         id="g408"><g
           id="g410"
           clip-path="url(#clipPath412)"><path
             d="m 2309.17,3166.67 0,1261.67"
             style="fill:none;stroke:#b2b2b2;stroke-width:5;stroke-linecap:butt;stroke-linejoin:round;stroke-miterlimit:10;stroke-opacity:1;stroke-dasharray:none"
             id="path416" /><path
             d="M 2937.5,3508.33 1681.67,4086.67"
             style="fill:none;stroke:#b2b2b2;stroke-width:5;stroke-linecap:butt;stroke-linejoin:round;stroke-miterlimit:10;stroke-opacity:1;stroke-dasharray:none"
             id="path418" /><path
             d="m 2937.5,3508.33 1636.67,443.34"
             style="fill:none;stroke:#b2b2b2;stroke-width:5;stroke-linecap:butt;stroke-linejoin:round;stroke-miterlimit:10;stroke-opacity:1;stroke-dasharray:none"
             id="path420" /></g></g><g
         id="g422"><g
           id="g424"
           clip-path="url(#clipPath426)"><path
             d="m 2686.67,4255 164.16,-15 -19.16,-51.67 105.83,-49.16 0,0 -105.83,49.16 -19.17,-52.5 -125.83,119.17"
             style="fill:#00ff00;fill-opacity:1;fill-rule:evenodd;stroke:none"
             id="path430" /><path
             d="m 2686.67,4255 164.16,-15 -19.16,-51.67 105.83,-49.16 0,0 -105.83,49.16 -19.17,-52.5 -125.83,119.17 0,0"
             style="fill:none;stroke:#00ff00;stroke-width:5;stroke-linecap:butt;stroke-linejoin:round;stroke-miterlimit:10;stroke-opacity:1;stroke-dasharray:none"
             id="path432" /><path
             d="m 2636.67,4516.67 -172.5,16.66 18.33,-58.33 -173.33,-46.67 0,0 173.33,46.67 18.33,-58.33 135.84,100"
             style="fill:#0000ff;fill-opacity:1;fill-rule:evenodd;stroke:none"
             id="path434" /><path
             d="m 2636.67,4516.67 -172.5,16.66 18.33,-58.33 -173.33,-46.67 0,0 173.33,46.67 18.33,-58.33 135.84,100 0,0"
             style="fill:none;stroke:#0000ff;stroke-width:5;stroke-linecap:butt;stroke-linejoin:round;stroke-miterlimit:10;stroke-opacity:1;stroke-dasharray:none"
             id="path436" /><path
             d="m 2636.67,3255.83 -166.67,13.34 12.5,-55.84 -173.33,-46.66 0,0 173.33,46.66 11.67,-55 142.5,97.5"
             style="fill:#0000ff;fill-opacity:1;fill-rule:evenodd;stroke:none"
             id="path438" /><path
             d="m 2636.67,3255.83 -166.67,13.34 12.5,-55.84 -173.33,-46.66 0,0 173.33,46.66 11.67,-55 142.5,97.5 0,0"
             style="fill:none;stroke:#0000ff;stroke-width:5;stroke-linecap:butt;stroke-linejoin:round;stroke-miterlimit:10;stroke-opacity:1;stroke-dasharray:none"
             id="path440" /><path
             d="m 2500,5190.84 60.83,-213.34 -60.83,0 0,-38.33 0,38.33 -61.67,0 61.67,213.34"
             style="fill:#ff0000;fill-opacity:1;fill-rule:evenodd;stroke:none"
             id="path442" /><path
             d="m 2500,5190.84 60.83,-213.34 -60.83,0 0,-38.33 0,38.33 -61.67,0 61.67,213.34 0,0"
             style="fill:none;stroke:#ff0000;stroke-width:5;stroke-linecap:butt;stroke-linejoin:round;stroke-miterlimit:10;stroke-opacity:1;stroke-dasharray:none"
             id="path444" /><path
             d="m 2309.17,4680.84 51.66,-216.67 -51.66,3.33 0,-39.17 0,39.17 -51.67,2.5 51.67,210.84"
             style="fill:#ff0000;fill-opacity:1;fill-rule:evenodd;stroke:none"
             id="path446" /><path
             d="m 2309.17,4680.84 51.66,-216.67 -51.66,3.33 0,-39.17 0,39.17 -51.67,2.5 51.67,210.84 0,0"
             style="fill:none;stroke:#ff0000;stroke-width:5;stroke-linecap:butt;stroke-linejoin:round;stroke-miterlimit:10;stroke-opacity:1;stroke-dasharray:none"
             id="path448" /></g></g><g
         id="g450"><g
           id="g452"
           clip-path="url(#clipPath454)"><path
             d="M 2309.17,3166.67 3946.67,3610"
             style="fill:none;stroke:#b2b2b2;stroke-width:5;stroke-linecap:butt;stroke-linejoin:round;stroke-miterlimit:10;stroke-opacity:1;stroke-dasharray:none"
             id="path458" /><path
             d="m 2309.17,4428.34 1637.5,443.33"
             style="fill:none;stroke:#b2b2b2;stroke-width:5;stroke-linecap:butt;stroke-linejoin:round;stroke-miterlimit:10;stroke-opacity:1;stroke-dasharray:none"
             id="path460" /><path
             d="m 2309.17,3797.5 1637.5,443.34"
             style="fill:none;stroke:#b2b2b2;stroke-width:5;stroke-linecap:butt;stroke-linejoin:round;stroke-miterlimit:10;stroke-opacity:1;stroke-dasharray:none"
             id="path462" /></g></g><g
         id="g464"><g
           id="g466"
           clip-path="url(#clipPath468)"><path
             d="m 2009.17,4175 -173.34,16.67 18.34,-58.34 -172.5,-46.66 0,0 172.5,46.66 18.33,-58.33 136.67,100"
             style="fill:#0000ff;fill-opacity:1;fill-rule:evenodd;stroke:none"
             id="path472" /><path
             d="m 2009.17,4175 -173.34,16.67 18.34,-58.34 -172.5,-46.66 0,0 172.5,46.66 18.33,-58.33 136.67,100 0,0"
             style="fill:none;stroke:#0000ff;stroke-width:5;stroke-linecap:butt;stroke-linejoin:round;stroke-miterlimit:10;stroke-opacity:1;stroke-dasharray:none"
             id="path474" /><path
             d="m 1681.67,3708.33 51.66,-216.66 -51.66,2.5 0,-38.34 0,38.34 -51.67,3.33 51.67,210.83"
             style="fill:#ff0000;fill-opacity:1;fill-rule:evenodd;stroke:none"
             id="path476" /><path
             d="m 1681.67,3708.33 51.66,-216.66 -51.66,2.5 0,-38.34 0,38.34 -51.67,3.33 51.67,210.83 0,0"
             style="fill:none;stroke:#ff0000;stroke-width:5;stroke-linecap:butt;stroke-linejoin:round;stroke-miterlimit:10;stroke-opacity:1;stroke-dasharray:none"
             id="path478" /><path
             d="m 1430,4832.5 210.83,-35.83 -16.66,-53.34 57.5,-25.83 0,0 -57.5,25.83 L 1607.5,4690 1430,4832.5"
             style="fill:#00ff00;fill-opacity:1;fill-rule:evenodd;stroke:none"
             id="path480" /><path
             d="m 1430,4832.5 210.83,-35.83 -16.66,-53.34 57.5,-25.83 0,0 -57.5,25.83 -16.67,-53.33 -177.5,142.5 0,0"
             style="fill:none;stroke:#00ff00;stroke-width:5;stroke-linecap:butt;stroke-linejoin:round;stroke-miterlimit:10;stroke-opacity:1;stroke-dasharray:none"
             id="path482" /><path
             d="m 1681.67,4969.17 51.66,-215.84 -51.66,2.5 0,-38.33 0,38.33 -51.67,2.5 51.67,210.84"
             style="fill:#ff0000;fill-opacity:1;fill-rule:evenodd;stroke:none"
             id="path484" /><path
             d="m 1681.67,4969.17 51.66,-215.84 -51.66,2.5 0,-38.33 0,38.33 -51.67,2.5 51.67,210.84 0,0"
             style="fill:none;stroke:#ff0000;stroke-width:5;stroke-linecap:butt;stroke-linejoin:round;stroke-miterlimit:10;stroke-opacity:1;stroke-dasharray:none"
             id="path486" /></g></g><g
         id="g488"><g
           id="g490"
           clip-path="url(#clipPath492)"><path
             d="M 1681.67,3455.83 2937.5,2877.5"
             style="fill:none;stroke:#000000;stroke-width:5;stroke-linecap:butt;stroke-linejoin:round;stroke-miterlimit:10;stroke-opacity:1;stroke-dasharray:none"
             id="path496" /><path
             d="M 1681.67,4717.5 2937.5,4139.17"
             style="fill:none;stroke:#000000;stroke-width:5;stroke-linecap:butt;stroke-linejoin:round;stroke-miterlimit:10;stroke-opacity:1;stroke-dasharray:none"
             id="path498" /><path
             d="m 1681.67,3455.83 0,1261.67"
             style="fill:none;stroke:#000000;stroke-width:5;stroke-linecap:butt;stroke-linejoin:round;stroke-miterlimit:10;stroke-opacity:1;stroke-dasharray:none"
             id="path500" /><path
             d="M 1681.67,4086.67 3318.33,4530"
             style="fill:none;stroke:#b2b2b2;stroke-width:5;stroke-linecap:butt;stroke-linejoin:round;stroke-miterlimit:10;stroke-opacity:1;stroke-dasharray:none"
             id="path502" /></g></g><g
         id="g504"><g
           id="g506"
           clip-path="url(#clipPath508)"><path
             d="m 1430,4201.67 210.83,-35.84 -16.66,-53.33 57.5,-25.83 0,0 -57.5,25.83 -16.67,-53.33 -177.5,142.5"
             style="fill:#00ff00;fill-opacity:1;fill-rule:evenodd;stroke:none"
             id="path512" /><path
             d="m 1430,4201.67 210.83,-35.84 -16.66,-53.33 57.5,-25.83 0,0 -57.5,25.83 -16.67,-53.33 -177.5,142.5 0,0"
             style="fill:none;stroke:#00ff00;stroke-width:5;stroke-linecap:butt;stroke-linejoin:round;stroke-miterlimit:10;stroke-opacity:1;stroke-dasharray:none"
             id="path514" /><path
             d="m 1430,3570.83 165,-14.16 -19.17,-52.5 105.84,-48.34 0,0 -105.84,48.34 -19.16,-51.67 -126.67,118.33"
             style="fill:#00ff00;fill-opacity:1;fill-rule:evenodd;stroke:none"
             id="path516" /><path
             d="m 1430,3570.83 165,-14.16 -19.17,-52.5 105.84,-48.34 0,0 -105.84,48.34 -19.16,-51.67 -126.67,118.33 0,0"
             style="fill:none;stroke:#00ff00;stroke-width:5;stroke-linecap:butt;stroke-linejoin:round;stroke-miterlimit:10;stroke-opacity:1;stroke-dasharray:none"
             id="path518" /></g></g></g><path
       sodipodi:type="arc"
       style="color:#000000;fill:none;stroke:#000000;stroke-width:0.93421036;stroke-linecap:butt;stroke-linejoin:miter;stroke-miterlimit:4;stroke-opacity:1;stroke-dasharray:0.93421036,0.93421036;stroke-dashoffset:0;marker:none;visibility:visible;display:inline;overflow:visible;enable-background:accumulate;filter:url(#filter3885)"
       id="path3065"
       sodipodi:cx="199.52066"
       sodipodi:cy="28.403549"
       sodipodi:rx="91.501587"
       sodipodi:ry="87.044495"
       d="m 291.02225,28.403549 a 91.501587,87.044495 0 1 1 -183.00318,0 91.501587,87.044495 0 1 1 183.00318,0 z"
       transform="matrix(0.8340761,0,0,-0.87919445,36.237131,486.33626)" /></g></svg>