<?xml version="1.0" encoding="UTF-8" standalone="no"?>
<!-- Created with Inkscape (http://www.inkscape.org/) -->

<svg
   xmlns:dc="http://purl.org/dc/elements/1.1/"
   xmlns:cc="http://creativecommons.org/ns#"
   xmlns:rdf="http://www.w3.org/1999/02/22-rdf-syntax-ns#"
   xmlns:svg="http://www.w3.org/2000/svg"
   xmlns="http://www.w3.org/2000/svg"
   xmlns:sodipodi="http://sodipodi.sourceforge.net/DTD/sodipodi-0.dtd"
   xmlns:inkscape="http://www.inkscape.org/namespaces/inkscape"
   id="svg2"
   version="1.1"
   inkscape:version="0.47 r22583"
   width="560"
   height="420.10376"
   xml:space="preserve"
   sodipodi:docname="k1_W3_dofs.eps"><metadata
     id="metadata8"><rdf:RDF><cc:Work
         rdf:about=""><dc:format>image/svg+xml</dc:format><dc:type
           rdf:resource="http://purl.org/dc/dcmitype/StillImage" /><dc:title></dc:title></cc:Work></rdf:RDF></metadata><defs
     id="defs6"><inkscape:perspective
       sodipodi:type="inkscape:persp3d"
       inkscape:vp_x="0 : 0.5 : 1"
       inkscape:vp_y="0 : 1000 : 0"
       inkscape:vp_z="1 : 0.5 : 1"
       inkscape:persp3d-origin="0.5 : 0.33333333 : 1"
       id="perspective10" /><clipPath
       clipPathUnits="userSpaceOnUse"
       id="clipPath20"><path
         d="m 810,5640 4480,0 0,-3360.83 -4480,0 0,3360.83 z"
         id="path22" /></clipPath><clipPath
       clipPathUnits="userSpaceOnUse"
       id="clipPath30"><path
         d="m 1391.67,5389.17 3472.5,0 0,-2740 -3472.5,0 0,2740 z"
         id="path32" /></clipPath><clipPath
       clipPathUnits="userSpaceOnUse"
       id="clipPath44"><path
         d="m 810,5640 4480,0 0,-3360.83 -4480,0 0,3360.83 z"
         id="path46" /></clipPath><clipPath
       clipPathUnits="userSpaceOnUse"
       id="clipPath54"><path
         d="m 1391.67,5389.17 3472.5,0 0,-2740 -3472.5,0 0,2740 z"
         id="path56" /></clipPath><clipPath
       clipPathUnits="userSpaceOnUse"
       id="clipPath64"><path
         d="m 810,5640 4480,0 0,-3360.83 -4480,0 0,3360.83 z"
         id="path66" /></clipPath><clipPath
       clipPathUnits="userSpaceOnUse"
       id="clipPath74"><path
         d="m 1391.67,5389.17 3472.5,0 0,-2740 -3472.5,0 0,2740 z"
         id="path76" /></clipPath><clipPath
       clipPathUnits="userSpaceOnUse"
       id="clipPath86"><path
         d="m 810,5640 4480,0 0,-3360.83 -4480,0 0,3360.83 z"
         id="path88" /></clipPath><clipPath
       clipPathUnits="userSpaceOnUse"
       id="clipPath102"><path
         d="m 1391.67,5389.17 3472.5,0 0,-2740 -3472.5,0 0,2740 z"
         id="path104" /></clipPath><clipPath
       clipPathUnits="userSpaceOnUse"
       id="clipPath116"><path
         d="m 810,5640 4480,0 0,-3360.83 -4480,0 0,3360.83 z"
         id="path118" /></clipPath><clipPath
       clipPathUnits="userSpaceOnUse"
       id="clipPath128"><path
         d="m 1391.67,5389.17 3472.5,0 0,-2740 -3472.5,0 0,2740 z"
         id="path130" /></clipPath></defs><sodipodi:namedview
     pagecolor="#ffffff"
     bordercolor="#666666"
     borderopacity="1"
     objecttolerance="10"
     gridtolerance="10"
     guidetolerance="10"
     inkscape:pageopacity="0"
     inkscape:pageshadow="2"
     inkscape:window-width="640"
     inkscape:window-height="498"
     id="namedview4"
     showgrid="false"
     inkscape:zoom="0.23838384"
     inkscape:cx="281.25"
     inkscape:cy="201.71392"
     inkscape:window-x="0"
     inkscape:window-y="25"
     inkscape:window-maximized="0"
     inkscape:current-layer="g12" /><g
     id="g12"
     inkscape:groupmode="layer"
     inkscape:label="ink_ext_XXXXXX"
     transform="matrix(1.25,0,0,-1.25,-101.25,705)"><g
       id="g14"
       transform="scale(0.1,0.1)"><g
         id="g16"><g
           id="g18"
           clip-path="url(#clipPath20)"><path
             d="m 810,2279.17 4480,0 0,3360.83 -4480,0 0,-3360.83 z"
             style="fill:#ffffff;fill-opacity:1;fill-rule:nonzero;stroke:none"
             id="path24" /></g></g><g
         id="g26"><g
           id="g28"
           clip-path="url(#clipPath30)"><path
             d="M 4574.17,3320.83 3318.33,3899.17"
             style="fill:none;stroke:#000000;stroke-width:5;stroke-linecap:butt;stroke-linejoin:round;stroke-miterlimit:10;stroke-opacity:1;stroke-dasharray:none"
             id="path34" /><path
             d="M 4574.17,4582.5 3318.33,5160.84"
             style="fill:none;stroke:#000000;stroke-width:5;stroke-linecap:butt;stroke-linejoin:round;stroke-miterlimit:10;stroke-opacity:1;stroke-dasharray:none"
             id="path36" /><path
             d="m 4574.17,3320.83 0,1261.67"
             style="fill:none;stroke:#000000;stroke-width:5;stroke-linecap:butt;stroke-linejoin:round;stroke-miterlimit:10;stroke-opacity:1;stroke-dasharray:none"
             id="path38" /></g></g><g
         id="g40"><g
           id="g42"
           clip-path="url(#clipPath44)"><path
             d="m 4532.5,3355.83 c 0,-16.56 -13.43,-30 -30,-30 -16.57,0 -30,13.44 -30,30 0,16.57 13.43,30 30,30 16.57,0 30,-13.43 30,-30"
             style="fill:none;stroke:#0000ff;stroke-width:40;stroke-linecap:butt;stroke-linejoin:round;stroke-miterlimit:10;stroke-opacity:1;stroke-dasharray:none"
             id="path48" /></g></g><g
         id="g50"><g
           id="g52"
           clip-path="url(#clipPath54)"><path
             d="m 3318.33,3899.17 0,1261.67"
             style="fill:none;stroke:#000000;stroke-width:5;stroke-linecap:butt;stroke-linejoin:round;stroke-miterlimit:10;stroke-opacity:1;stroke-dasharray:none"
             id="path58" /></g></g><g
         id="g60"><g
           id="g62"
           clip-path="url(#clipPath64)"><path
             d="m 4532.5,4554.17 c 0,-16.57 -13.43,-30 -30,-30 -16.57,0 -30,13.43 -30,30 0,16.56 13.43,30 30,30 16.57,0 30,-13.44 30,-30"
             style="fill:none;stroke:#0000ff;stroke-width:40;stroke-linecap:butt;stroke-linejoin:round;stroke-miterlimit:10;stroke-opacity:1;stroke-dasharray:none"
             id="path68" /></g></g><g
         id="g70"><g
           id="g72"
           clip-path="url(#clipPath74)"><path
             d="M 3318.33,3899.17 1681.67,3455.83"
             style="fill:none;stroke:#000000;stroke-width:5;stroke-linecap:butt;stroke-linejoin:round;stroke-miterlimit:10;stroke-opacity:1;stroke-dasharray:none"
             id="path78" /><path
             d="M 3318.33,5160.84 1681.67,4717.5"
             style="fill:none;stroke:#000000;stroke-width:5;stroke-linecap:butt;stroke-linejoin:round;stroke-miterlimit:10;stroke-opacity:1;stroke-dasharray:none"
             id="path80" /></g></g><g
         id="g82"><g
           id="g84"
           clip-path="url(#clipPath86)"><path
             d="m 3339.17,3905 c 0,-16.57 -13.44,-30 -30,-30 -16.57,0 -30,13.43 -30,30 0,16.57 13.43,30 30,30 16.56,0 30,-13.43 30,-30"
             style="fill:none;stroke:#0000ff;stroke-width:40;stroke-linecap:butt;stroke-linejoin:round;stroke-miterlimit:10;stroke-opacity:1;stroke-dasharray:none"
             id="path90" /><path
             d="m 3339.17,5103.34 c 0,-16.57 -13.44,-30 -30,-30 -16.57,0 -30,13.43 -30,30 0,16.56 13.43,30 30,30 16.56,0 30,-13.44 30,-30"
             style="fill:none;stroke:#0000ff;stroke-width:40;stroke-linecap:butt;stroke-linejoin:round;stroke-miterlimit:10;stroke-opacity:1;stroke-dasharray:none"
             id="path92" /><path
             d="m 2976.67,2935 c 0,-16.57 -13.44,-30 -30,-30 -16.57,0 -30,13.43 -30,30 0,16.57 13.43,30 30,30 16.56,0 30,-13.43 30,-30"
             style="fill:none;stroke:#0000ff;stroke-width:40;stroke-linecap:butt;stroke-linejoin:round;stroke-miterlimit:10;stroke-opacity:1;stroke-dasharray:none"
             id="path94" /><path
             d="m 2976.67,4133.34 c 0,-16.57 -13.44,-30 -30,-30 -16.57,0 -30,13.43 -30,30 0,16.56 13.43,30 30,30 16.56,0 30,-13.44 30,-30"
             style="fill:none;stroke:#0000ff;stroke-width:40;stroke-linecap:butt;stroke-linejoin:round;stroke-miterlimit:10;stroke-opacity:1;stroke-dasharray:none"
             id="path96" /></g></g><g
         id="g98"><g
           id="g100"
           clip-path="url(#clipPath102)"><path
             d="m 2937.5,2877.5 1636.67,443.33"
             style="fill:none;stroke:#000000;stroke-width:5;stroke-linecap:butt;stroke-linejoin:round;stroke-miterlimit:10;stroke-opacity:1;stroke-dasharray:none"
             id="path106" /><path
             d="M 2937.5,4139.17 4574.17,4582.5"
             style="fill:none;stroke:#000000;stroke-width:5;stroke-linecap:butt;stroke-linejoin:round;stroke-miterlimit:10;stroke-opacity:1;stroke-dasharray:none"
             id="path108" /><path
             d="m 2937.5,2877.5 0,1261.67"
             style="fill:none;stroke:#000000;stroke-width:5;stroke-linecap:butt;stroke-linejoin:round;stroke-miterlimit:10;stroke-opacity:1;stroke-dasharray:none"
             id="path110" /></g></g><g
         id="g112"><g
           id="g114"
           clip-path="url(#clipPath116)"><path
             d="m 1783.33,3484.17 c 0,-16.57 -13.43,-30 -30,-30 -16.56,0 -30,13.43 -30,30 0,16.56 13.44,30 30,30 16.57,0 30,-13.44 30,-30"
             style="fill:none;stroke:#0000ff;stroke-width:40;stroke-linecap:butt;stroke-linejoin:round;stroke-miterlimit:10;stroke-opacity:1;stroke-dasharray:none"
             id="path120" /><path
             d="m 1783.33,4682.5 c 0,-16.57 -13.43,-30 -30,-30 -16.56,0 -30,13.43 -30,30 0,16.57 13.44,30 30,30 16.57,0 30,-13.43 30,-30"
             style="fill:none;stroke:#0000ff;stroke-width:40;stroke-linecap:butt;stroke-linejoin:round;stroke-miterlimit:10;stroke-opacity:1;stroke-dasharray:none"
             id="path122" /></g></g><g
         id="g124"><g
           id="g126"
           clip-path="url(#clipPath128)"><path
             d="M 1681.67,3455.83 2937.5,2877.5"
             style="fill:none;stroke:#000000;stroke-width:5;stroke-linecap:butt;stroke-linejoin:round;stroke-miterlimit:10;stroke-opacity:1;stroke-dasharray:none"
             id="path132" /><path
             d="M 1681.67,4717.5 2937.5,4139.17"
             style="fill:none;stroke:#000000;stroke-width:5;stroke-linecap:butt;stroke-linejoin:round;stroke-miterlimit:10;stroke-opacity:1;stroke-dasharray:none"
             id="path134" /><path
             d="m 1681.67,3455.83 0,1261.67"
             style="fill:none;stroke:#000000;stroke-width:5;stroke-linecap:butt;stroke-linejoin:round;stroke-miterlimit:10;stroke-opacity:1;stroke-dasharray:none"
             id="path136" /></g></g></g></g></svg>